<svg width="13" height="13" viewBox="0 0 13 13" fill="none" xmlns="http://www.w3.org/2000/svg">
<path fill-rule="evenodd" clip-rule="evenodd" d="M2.7141 0.0826796C2.03299 0.228334 1.49628 0.769788 1.35598 1.4528C1.32384 1.60931 1.31894 1.91036 1.31894 3.72793V5.82267L1.18414 5.88743C1.01885 5.96681 0.784242 6.19402 0.711681 6.34496C0.554814 6.67126 0.555095 6.99196 0.712502 7.314C0.788298 7.46901 1.01965 7.6944 1.18414 7.7734L1.31894 7.83816L1.31903 8.47514C1.31915 9.20481 1.34393 9.41651 1.47072 9.77061C1.65434 10.2834 1.99672 10.702 2.51461 11.0467L2.57322 11.0857L2.35095 11.31L2.12867 11.5343L2.37404 11.78L2.61941 12.0258L2.95971 11.6871L3.3 11.3485L3.45239 11.3707C3.65556 11.4003 9.53236 11.4003 9.73553 11.3707L9.88791 11.3485L10.2282 11.6871L10.5685 12.0258L10.8139 11.78L11.0593 11.5343L10.8428 11.3173C10.7238 11.198 10.6264 11.0939 10.6264 11.0861C10.6264 11.0782 10.6974 11.0257 10.7842 10.9695C11.1009 10.7644 11.4897 10.3114 11.6355 9.97774C11.8326 9.52673 11.8688 9.29374 11.8689 8.47411L11.869 7.8361L12.0038 7.77307C12.176 7.69257 12.4002 7.46939 12.4844 7.29464C12.7813 6.67865 12.4237 5.9464 11.7565 5.80386C11.6818 5.7879 11.3871 5.77732 11.0176 5.77732H10.403L10.3455 5.65446C10.274 5.50181 10.0419 5.26556 9.89363 5.19456C9.66078 5.08303 9.58848 5.07582 8.70397 5.07582C7.81765 5.07582 7.7471 5.08291 7.51617 5.19538C7.36081 5.27106 7.13016 5.50363 7.06093 5.65446L7.00452 5.77732H4.5134H2.02228V3.74249C2.02228 2.31405 2.0302 1.6707 2.04886 1.58364C2.13507 1.18159 2.45879 0.858459 2.86157 0.772409C3.04361 0.733515 3.87894 0.738289 4.0325 0.779102C4.23617 0.833208 4.37104 0.911137 4.51945 1.0604C4.68042 1.22231 4.81443 1.46411 4.76165 1.49748C4.7443 1.50845 4.71875 1.51758 4.70485 1.51779C4.69097 1.51798 4.61198 1.54557 4.52936 1.57908C4.07557 1.76314 3.66942 2.19189 3.52423 2.64013C3.45537 2.85276 3.42932 3.03733 3.42914 3.31425L3.42895 3.55412H5.19052H6.9521L6.93902 3.22064C6.92457 2.85211 6.88413 2.67498 6.75744 2.42565C6.65491 2.22388 6.55028 2.08665 6.37208 1.92026C6.18326 1.74395 5.98562 1.62712 5.7324 1.5422C5.62448 1.50599 5.5304 1.47059 5.52332 1.46354C5.51626 1.45648 5.48079 1.36256 5.44452 1.25484C5.35602 0.991944 5.23828 0.798362 5.04036 0.590388C4.77253 0.308954 4.43322 0.128992 4.05468 0.0676788C3.8265 0.0307035 2.90911 0.0409771 2.7141 0.0826796ZM5.43918 2.18323C5.61972 2.2312 5.75783 2.3044 5.88769 2.42092C6.0032 2.52459 6.12973 2.70088 6.1593 2.7994L6.17512 2.85206H5.18729H4.19945L4.21528 2.7994C4.24451 2.70203 4.37083 2.52509 4.48262 2.42492C4.74437 2.19037 5.11433 2.0969 5.43918 2.18323ZM9.57202 5.82443C9.6316 5.85476 9.68139 5.90446 9.71178 5.96393C9.7567 6.05183 9.75897 6.10043 9.75897 6.96989V7.88351H8.70397H7.64896V6.96989C7.64896 6.10078 7.65126 6.05178 7.69611 5.96402C7.72492 5.90765 7.77734 5.85382 7.83092 5.82558C7.91297 5.78233 7.96835 5.77933 8.69904 5.77835C9.43612 5.77737 9.48465 5.77994 9.57202 5.82443ZM6.94563 6.83041V7.18145H4.25856H1.57149L1.47797 7.12898C1.24202 6.99662 1.23963 6.67629 1.47351 6.53496L1.56511 6.47962L4.25537 6.4795L6.94563 6.47938V6.83041ZM11.7055 6.52649C11.8101 6.57975 11.8924 6.71443 11.8924 6.83215C11.8924 6.94099 11.8012 7.08557 11.7001 7.13705C11.6215 7.17707 11.5563 7.18145 11.0376 7.18145H10.4623V6.83041V6.47938H11.0376C11.568 6.47938 11.6202 6.48306 11.7055 6.52649ZM6.94563 8.23454V8.58557H8.70397H10.4623V8.23454V7.88351H10.8161H11.1699L11.1593 8.56802C11.151 9.10891 11.1408 9.28008 11.1105 9.38386C10.9558 9.91319 10.5703 10.3502 10.0742 10.5586C9.74875 10.6954 9.84365 10.6918 6.59396 10.6918C3.34427 10.6918 3.43917 10.6954 3.11371 10.5586C2.69537 10.3829 2.33158 10.02 2.15607 9.60351C2.0442 9.33795 2.02228 9.15602 2.02228 8.49295V7.88351H4.48395H6.94563V8.23454Z" fill="#001D4C"/>
</svg>
