<svg width="16" height="13" viewBox="0 0 16 13" fill="none" xmlns="http://www.w3.org/2000/svg">
<path fill-rule="evenodd" clip-rule="evenodd" d="M1.37888 0.399916C0.723121 0.6064 0.438957 1.37544 0.803461 1.95721C0.87683 2.07431 0.876889 2.07504 0.819716 2.13814C0.788113 2.17299 0.737677 2.24798 0.707597 2.30478C0.654935 2.40423 0.652621 2.58779 0.645153 7.24777C0.639383 10.8565 0.646031 12.1085 0.671249 12.17C0.733401 12.3216 0.811779 12.3383 1.45916 12.3383H2.04866L2.13211 12.2542C2.18225 12.2037 2.22299 12.1242 2.23412 12.055C2.36648 11.2333 2.57176 10.6546 2.83982 10.3478L2.95709 10.2136H3.4046C3.84403 10.2136 3.85343 10.2122 3.92604 10.1391C4.01959 10.0448 4.04164 9.93065 3.99027 9.80674C3.91558 9.62667 3.88846 9.62336 2.48442 9.62336H1.22405V8.3249V7.02645H3.16798H5.1119L5.12531 7.50599C5.13641 7.90338 5.1488 8.00829 5.19768 8.11833C5.27764 8.29826 5.39181 8.42825 5.5546 8.52469L5.69065 8.60525H10.3696H15.0485V9.11431V9.62336H10.6742C7.63047 9.62336 6.27236 9.63301 6.20951 9.65509C6.09218 9.69628 6.02748 9.7991 6.02748 9.94432C6.02748 10.0381 6.04499 10.0756 6.1176 10.1372L6.20769 10.2136H9.76182H13.3159L13.4318 10.3501C13.6586 10.6175 13.8825 11.1787 13.9775 11.7186C14.0507 12.1344 14.0757 12.211 14.1599 12.2777C14.2312 12.3342 14.2756 12.3383 14.8196 12.3383C15.4546 12.3383 15.5337 12.3219 15.5993 12.1768C15.654 12.0559 15.6484 7.0677 15.5933 6.8593C15.4624 6.36364 15.1303 6.04233 14.5502 5.85007C14.0266 5.67652 14.317 5.68759 9.82449 5.67018L5.69879 5.65421L5.63398 5.47385C5.52616 5.1739 5.44193 5.05967 4.78854 4.32766C4.1351 3.5956 3.97656 3.45587 3.66709 3.33921C3.45615 3.25968 3.10143 3.20942 2.88621 3.22855L2.7178 3.24351V2.89688C2.7178 2.51236 2.67785 2.32939 2.55987 2.17352L2.48486 2.07445L2.5833 1.88414C2.76789 1.52733 2.74501 1.13378 2.52042 0.803294C2.27594 0.443562 1.78793 0.271103 1.37888 0.399916ZM1.86639 0.990508C1.99084 1.05537 2.09479 1.19628 2.11734 1.33073C2.14394 1.48932 2.04172 1.70439 1.90128 1.7854C1.62971 1.94201 1.27437 1.76681 1.23296 1.45583C1.18771 1.1159 1.56917 0.835666 1.86639 0.990508ZM2.08641 2.51794C2.12657 2.57566 2.13202 2.81413 2.13202 4.50989V6.43624H1.67804H1.22405V4.50989C1.22405 2.81413 1.2295 2.57566 1.26966 2.51794C1.31259 2.45614 1.33635 2.45233 1.67804 2.45233C2.01972 2.45233 2.04348 2.45614 2.08641 2.51794ZM3.45097 3.88433C3.52396 3.90853 3.63461 3.97062 3.69688 4.02232C3.90076 4.19165 4.97002 5.41081 5.03621 5.54939C5.12364 5.73247 5.14816 6.17681 5.07833 6.31286C5.02013 6.42623 4.94378 6.4484 4.67757 6.42918C4.531 6.41865 4.42343 6.38917 4.29039 6.32318C4.12506 6.24117 4.04275 6.16061 3.48796 5.53756C3.12615 5.13126 2.84169 4.78507 2.80204 4.70283C2.74943 4.59373 2.73171 4.49829 2.72269 4.27572L2.71106 3.98912L2.80409 3.89539C2.89603 3.80276 2.89954 3.8019 3.10767 3.821C3.22348 3.83162 3.37795 3.86013 3.45097 3.88433ZM3.08816 5.97145C3.2808 6.18649 3.44839 6.37908 3.46057 6.39935C3.47788 6.42812 3.3986 6.43624 3.10029 6.43624H2.7178V6.00834C2.7178 5.77299 2.72234 5.58044 2.72785 5.58044C2.73338 5.58044 2.89553 5.75641 3.08816 5.97145ZM14.0841 6.32557C14.5742 6.44913 14.8435 6.60542 14.9594 6.83366C15.0278 6.96813 15.0347 7.0168 15.0432 7.42472C15.0519 7.84185 15.0486 7.87419 14.9898 7.94953L14.9271 8.0298H10.4022C7.50658 8.0298 5.85789 8.01941 5.82359 8.00091C5.72187 7.94605 5.7053 7.80888 5.7053 7.02134V6.25779L9.79846 6.26744C13.478 6.27609 13.9111 6.28199 14.0841 6.32557ZM4.95335 9.64608C4.91835 9.65175 4.85573 9.69062 4.81423 9.73243C4.64066 9.90731 4.77507 10.2136 5.02541 10.2136C5.15352 10.2136 5.27896 10.1159 5.30116 9.99888C5.31771 9.91168 5.27638 9.75734 5.22498 9.71437C5.16963 9.66807 5.03167 9.63339 4.95335 9.64608ZM2.1906 10.2291C2.1906 10.2376 2.1437 10.3384 2.08638 10.453C1.96021 10.7055 1.80316 11.1739 1.73377 11.5046L1.68269 11.7481H1.45339H1.22405V10.9808V10.2136H1.70732C1.97312 10.2136 2.1906 10.2205 2.1906 10.2291ZM15.0485 10.9808V11.7481H14.8192H14.5899L14.5388 11.5046C14.4694 11.1739 14.3124 10.7055 14.1862 10.453C14.1289 10.3384 14.082 10.2376 14.082 10.2291C14.082 10.2205 14.2995 10.2136 14.5653 10.2136H15.0485V10.9808Z" fill="#001D4C"/>
</svg>
