<svg width="15" height="20" viewBox="0 0 15 20" fill="none" xmlns="http://www.w3.org/2000/svg">
<path fill-rule="evenodd" clip-rule="evenodd" d="M1.49415 0C0.668953 0 0 0.668953 0 1.49415V18.4258C0 19.251 0.668953 19.92 1.49415 19.92H13.3968C14.222 19.92 14.8909 19.251 14.8909 18.4258V1.49415C14.8909 0.668953 14.222 0 13.3968 0H1.49415ZM4.48805 2.89674C4.39825 2.72743 4.28161 2.61303 4.12154 2.5373C3.74623 2.35974 3.3009 2.52251 3.10997 2.90702C3.05452 3.01869 3.05051 3.05455 3.05053 3.43767C3.05058 3.90063 3.07324 3.98612 3.24691 4.17837C3.34953 4.29195 3.35529 4.30926 3.29042 4.30926C3.26487 4.30926 3.16122 4.35045 3.06007 4.4008C2.82133 4.51963 2.57855 4.75842 2.46886 4.9823C2.36888 5.18635 2.30151 5.50119 2.32497 5.65481C2.35889 5.87684 2.51324 6.03448 2.7386 6.07721C2.9119 6.11008 4.68423 6.10991 4.8577 6.07698C5.19822 6.01241 5.34216 5.74068 5.25592 5.32523C5.16597 4.89202 4.78865 4.45743 4.39524 4.33399C4.34045 4.31678 4.28694 4.29775 4.27633 4.29168C4.2657 4.2856 4.30778 4.22417 4.36984 4.15514C4.53457 3.97193 4.56363 3.84871 4.55267 3.38012C4.54485 3.04648 4.53723 2.98948 4.48805 2.89674ZM12.1209 3.38971C12.4713 3.18897 12.454 2.6781 12.0911 2.51329C11.9957 2.46991 11.8642 2.46757 9.5376 2.46757C7.20543 2.46757 7.0798 2.46984 6.9851 2.51354C6.61823 2.68285 6.6016 3.18758 6.95618 3.39075L7.0598 3.45012H9.5376H12.0154L12.1209 3.38971ZM12.1209 5.97957C12.4713 5.77883 12.454 5.26795 12.0911 5.10315C11.9957 5.05977 11.8642 5.05743 9.5376 5.05743C7.20543 5.05743 7.0798 5.05969 6.9851 5.1034C6.6083 5.27729 6.6064 5.79175 6.98181 5.99727C7.054 6.03679 7.24423 6.03998 9.5376 6.03998H12.0154L12.1209 5.97957ZM12.3684 8.11144C12.3536 7.93824 12.2741 7.804 12.1354 7.71773L12.0403 7.65864L7.38354 7.65336C2.81793 7.6482 2.61342 7.6426 2.50622 7.74197C2.49557 7.75185 2.48588 7.76276 2.47297 7.77481C2.19712 8.0322 2.30752 8.52126 2.66305 8.61699C2.72802 8.63449 4.25589 8.64072 7.40368 8.63631L12.0485 8.62984L12.1545 8.55513C12.3111 8.44489 12.384 8.29358 12.3684 8.11144ZM12.0911 11.1853C12.4512 11.0218 12.4693 10.491 12.1212 10.305L12.0154 10.2485L7.38354 10.2432C2.85732 10.2381 2.65864 10.2333 2.52966 10.3258C2.51755 10.3345 2.50605 10.344 2.49164 10.3545C2.33934 10.4653 2.27218 10.7479 2.35249 10.9401C2.39794 11.0489 2.56645 11.1963 2.66873 11.2168C2.71094 11.2252 4.82558 11.2319 7.36797 11.2316C11.7988 11.2311 11.9947 11.2292 12.0911 11.1853ZM12.0911 13.7752C12.4512 13.6116 12.4693 13.0808 12.1212 12.8949L12.0154 12.8384L7.38354 12.8331C2.85733 12.8279 2.65864 12.8232 2.52966 12.9157C2.51755 12.9243 2.50605 12.9339 2.49164 12.9444C2.33934 13.0551 2.27218 13.3378 2.35249 13.53C2.39794 13.6388 2.56645 13.7862 2.66873 13.8067C2.71094 13.8151 4.82558 13.8218 7.36797 13.8215C11.7988 13.8209 11.9947 13.819 12.0911 13.7752ZM5.82686 16.8085C5.78729 16.6606 5.62522 16.5043 5.47105 16.4655C5.29972 16.4224 2.81341 16.4286 2.67298 16.4725C2.44717 16.5431 2.31588 16.7163 2.31588 16.9435C2.31588 17.0924 2.36091 17.1994 2.46699 17.3027C2.62258 17.4543 2.65916 17.4578 4.08226 17.4576C4.93316 17.4575 5.40005 17.4483 5.46605 17.4303C5.74465 17.3542 5.90082 17.0851 5.82686 16.8085ZM12.5756 16.9643C12.5752 16.726 12.4399 16.5396 12.2199 16.4743C12.114 16.4428 11.8836 16.4371 10.7969 16.4387C9.40452 16.4407 9.38273 16.4426 9.22316 16.5707C9.00135 16.7487 8.98262 17.0655 9.18095 17.2851C9.33562 17.4563 9.34961 17.4578 10.8076 17.4578C12.2544 17.4578 12.2705 17.4561 12.4315 17.2904C12.5369 17.1819 12.5758 17.0939 12.5756 16.9643Z" fill="white"/>
</svg>
