<svg width="21" height="20" viewBox="0 0 21 20" fill="none" xmlns="http://www.w3.org/2000/svg">
<path fill-rule="evenodd" clip-rule="evenodd" d="M4.619 20.0001H15.4029C17.9545 20.0001 20.0219 17.9234 20.0219 15.3811V8.60156C20.0219 7.25122 19.1558 5.59359 18.0476 4.82065L12.2925 0.788335C10.728 -0.310537 8.31607 -0.254662 6.80744 0.91871L1.788 4.82996C0.782251 5.61221 0 7.20465 0 8.47118V15.3718C0 17.9234 2.06738 20.0001 4.619 20.0001ZM9.31268 15.577C9.31268 15.9588 9.62931 16.2754 10.0111 16.2754C10.3929 16.2754 10.7096 15.9588 10.7096 15.577V12.7832C10.7096 12.4014 10.3929 12.0848 10.0111 12.0848C9.62931 12.0848 9.31268 12.4014 9.31268 12.7832V15.577Z" fill="white"/>
</svg>
