<svg width="23" height="21" viewBox="0 0 23 21" fill="none" xmlns="http://www.w3.org/2000/svg">
<path fill-rule="evenodd" clip-rule="evenodd" d="M10.1916 0.343998C10.085 0.382526 9.97961 0.491369 9.94843 0.595244C9.8127 1.04736 10.2284 1.96402 10.8288 2.53654C10.9267 2.62986 11.0476 2.7332 11.0975 2.76616C11.1475 2.79914 11.1883 2.83459 11.1883 2.84497C11.1883 2.85535 11.1358 2.89028 11.0716 2.9226C10.6294 3.14537 9.96338 3.70205 9.47429 4.25782C8.39167 5.48803 7.68895 6.90463 7.54125 8.15461C7.50913 8.42653 7.52836 9.02757 7.57592 9.23776C7.76331 10.0659 8.25383 10.6708 9.06805 11.078C9.86484 11.4765 10.9649 11.67 12.4329 11.6701C13.3937 11.6701 14.2052 11.5605 14.8739 11.3404C16.0604 10.9497 16.7436 10.2323 16.9112 9.20111C16.9533 8.94239 16.9531 8.4873 16.9108 8.19065C16.7501 7.06216 16.1134 5.78384 15.1251 4.6058C14.8995 4.33683 14.3616 3.80257 14.0886 3.57633C13.8003 3.33741 13.3321 3.02748 13.0566 2.89319L12.8385 2.78694L13.0353 2.58135C13.4783 2.11858 13.9027 1.31981 13.9993 0.767059C14.0339 0.56927 14.0258 0.459983 13.9719 0.397898C13.8882 0.301454 13.5436 0.330645 12.97 0.482763C11.8931 0.768368 11.9209 0.762268 11.754 0.748981C11.5555 0.733188 11.3784 0.678357 10.9905 0.512796C10.5356 0.318556 10.363 0.28209 10.1916 0.343998ZM12.3548 4.88679C12.4424 4.95555 12.4773 5.05763 12.4773 5.24473V5.4082L12.6718 5.456C12.9526 5.52499 13.1292 5.61886 13.3016 5.79074C13.5522 6.04052 13.6621 6.34729 13.5538 6.4951C13.4001 6.70487 13.1302 6.65026 13.0443 6.392C12.9821 6.20533 12.7811 6.04407 12.5587 6.00241L12.4765 5.98704L12.4825 6.51413L12.4884 7.04122L12.6662 7.091C13.0346 7.19412 13.2165 7.28646 13.3877 7.45734C13.8044 7.8732 13.7117 8.61309 13.2006 8.95171C13.0478 9.05295 12.8346 9.13384 12.633 9.16704L12.4773 9.19271L12.4761 9.35028C12.4745 9.55411 12.4404 9.64906 12.3462 9.71224C12.2199 9.79701 12.0288 9.76423 11.9613 9.64625C11.9456 9.61892 11.9278 9.50278 11.9217 9.38815C11.9092 9.15303 11.9266 9.17388 11.6772 9.09529C11.2821 8.97074 10.961 8.65368 10.8417 8.27002C10.8056 8.15401 10.8048 8.1322 10.8338 8.0502C10.8952 7.87683 11.0879 7.80605 11.2322 7.90383C11.3105 7.95693 11.3304 7.98747 11.403 8.16588C11.4611 8.30872 11.6003 8.45079 11.7531 8.52317C11.8254 8.55742 11.8929 8.58029 11.9031 8.57399C11.9265 8.55957 11.9272 7.54336 11.9038 7.50672C11.8944 7.49186 11.817 7.45856 11.7319 7.43272C11.3488 7.31636 11.0474 7.10466 10.9339 6.87223C10.8176 6.63427 10.8218 6.30157 10.9443 6.03988C11.0742 5.7623 11.3952 5.52927 11.7613 5.44675L11.9217 5.4106V5.20005C11.9217 4.99022 11.922 4.98929 11.9973 4.91412C12.0629 4.84859 12.0873 4.8387 12.1832 4.8387C12.2627 4.8387 12.3106 4.85212 12.3548 4.88679ZM11.7477 6.03329C11.5255 6.12394 11.4107 6.26857 11.4107 6.45793C11.4107 6.63418 11.4608 6.70296 11.659 6.79885C11.9322 6.93096 11.9106 6.96115 11.9106 6.44715C11.9106 5.94922 11.9166 5.96442 11.7477 6.03329ZM12.4773 8.1242C12.4773 8.59974 12.48 8.63392 12.5162 8.62374C12.5376 8.61773 12.5901 8.60584 12.6329 8.59732C12.8365 8.55682 13.0314 8.399 13.0761 8.23856C13.105 8.13438 13.1051 8.10878 13.0764 8.00575C13.0314 7.84394 12.8822 7.73374 12.5917 7.64763L12.4773 7.61374V8.1242Z" fill="white"/>
<path fill-rule="evenodd" clip-rule="evenodd" d="M6.75273 12.7485C6.57591 12.7778 5.98457 12.9078 5.43863 13.0375C3.69159 13.4527 2.963 13.505 1.12682 13.3469L0.673828 13.3078V15.5685C0.673828 17.3276 0.690019 17.8334 0.746892 17.8486C0.787106 17.8593 1.37968 18.0039 2.06379 18.1698C2.74796 18.3358 4.26038 18.745 5.42472 19.0793C10.182 20.445 10.7619 20.5177 13.3472 20.073C14.9273 19.8013 16.7279 19.2935 17.5369 18.8916C18.3203 18.5023 20.6621 16.8665 21.6364 16.0278C21.8903 15.8092 22.1019 15.5689 22.1771 15.4135C22.4245 14.9023 22.2782 14.4086 21.8172 14.1994C21.3342 13.9801 20.8934 14.075 20.138 14.5612C18.5914 15.5565 17.1864 16.2081 16.1049 16.4315C15.3881 16.5796 13.4471 16.6437 12.6855 16.5444C11.6775 16.413 10.7273 16.0701 10.6795 15.8207C10.6197 15.5092 11.0702 15.4644 12.0227 15.6872C13.1841 15.9587 14.4702 16.0349 15.0396 15.8658C15.7885 15.6434 16.061 14.9258 15.6031 14.3816C15.2766 13.9936 14.605 13.8004 12.3348 13.4417C11.6918 13.3401 10.7581 13.156 10.2598 13.0327C9.76149 12.9094 9.16465 12.78 8.93342 12.7451C8.43974 12.6707 7.21209 12.6726 6.75273 12.7485Z" fill="white"/>
</svg>
