<svg width="19" height="19" viewBox="0 0 19 19" fill="none" xmlns="http://www.w3.org/2000/svg">
<path d="M18.6517 12.7364V16.1384C18.6517 18.0823 17.7517 18.9823 15.8078 18.9823H10.1289V8.56055L10.5519 8.65054L14.6018 9.55952L16.4287 9.96451C17.6167 10.2255 18.5887 10.8375 18.6427 12.5654C18.6517 12.6194 18.6517 12.6734 18.6517 12.7364Z" fill="white"/>
<path d="M14.6107 9.46952V12.3674C14.6107 13.4834 13.6048 14.3924 12.3698 14.3924C11.1348 14.3924 10.1289 13.4834 10.1289 12.3674V8.56055L14.6107 9.46952Z" fill="#001D4C" stroke="white" stroke-width="0.1" stroke-linecap="round" stroke-linejoin="round"/>
<path d="M18.6522 12.4757C18.5982 13.5376 17.7162 14.3926 16.6363 14.3926C15.5203 14.3926 14.6113 13.4836 14.6113 12.3677V9.46973L16.4383 9.87472C17.6263 10.1357 18.5982 10.7477 18.6522 12.4757Z" fill="#001D4C" stroke="white" stroke-width="0.1" stroke-linecap="round" stroke-linejoin="round"/>
<path d="M8.53211 3.39456L8.53216 3.39458C8.95399 3.6011 9.34131 3.98075 9.62332 4.42818C9.90534 4.87565 10.0791 5.38625 10.0791 5.85161V18.9323H2.5513C1.534 18.9323 0.702344 18.1168 0.702344 17.1193V3.76367C0.702344 2.59672 1.1361 1.7586 1.82469 1.33931C2.51353 0.919873 3.47111 0.911198 4.53626 1.43263L8.53211 3.39456Z" fill="white" stroke="#001D4C" stroke-width="0.1" stroke-linecap="round" stroke-linejoin="round"/>
<path d="M3.83008 7.28223H6.953" stroke="#001D4C" stroke-width="1.5" stroke-linecap="round" stroke-linejoin="round"/>
<path d="M3.83008 10.8828H6.953" stroke="#001D4C" stroke-width="1.5" stroke-linecap="round" stroke-linejoin="round"/>
</svg>
