<svg width="28" height="28" viewBox="0 0 28 28" fill="none" xmlns="http://www.w3.org/2000/svg">
<g filter="url(#filter0_d_228_582)">
<path fill-rule="evenodd" clip-rule="evenodd" d="M10.8701 14.7627H17.0373C18.4966 14.7627 19.6789 13.5741 19.6789 12.1189V8.23856C19.6789 7.46567 19.1836 6.5169 18.5498 6.07449L15.2585 3.76652C14.3638 3.13756 12.9844 3.16955 12.1216 3.84115L9.25106 6.07982C8.67588 6.52756 8.22852 7.43902 8.22852 8.16394V12.1136C8.22852 13.5741 9.41083 14.7627 10.8701 14.7627ZM13.5537 12.2311C13.5537 12.4497 13.7348 12.6309 13.9531 12.6309C14.1715 12.6309 14.3526 12.4497 14.3526 12.2311V10.6321C14.3526 10.4135 14.1715 10.2323 13.9531 10.2323C13.7348 10.2323 13.5537 10.4135 13.5537 10.6321V12.2311Z" fill="white"/>
</g>
<path fill-rule="evenodd" clip-rule="evenodd" d="M8.39929 15.9763C8.22799 16.0046 7.65506 16.1307 7.12614 16.2565C5.43352 16.6591 4.72763 16.7097 2.94865 16.5564L2.50977 16.5186V18.7106C2.50977 20.4164 2.52545 20.9068 2.58055 20.9215C2.61951 20.932 3.19363 21.0721 3.85643 21.233C4.51928 21.3939 5.98459 21.7908 7.11266 22.1149C11.7218 23.4391 12.2836 23.5096 14.7883 23.0785C16.3192 22.815 18.0637 22.3226 18.8475 21.9329C19.6065 21.5555 21.8753 19.9692 22.8193 19.156C23.0653 18.9441 23.2703 18.711 23.3432 18.5604C23.5829 18.0647 23.4411 17.586 22.9945 17.3831C22.5265 17.1704 22.0994 17.2625 21.3676 17.7339C19.8692 18.699 18.5079 19.3308 17.4601 19.5475C16.7657 19.6911 14.8851 19.7532 14.1472 19.6569C13.1706 19.5295 12.2501 19.1971 12.2037 18.9552C12.1458 18.6531 12.5822 18.6097 13.5051 18.8257C14.6303 19.089 15.8764 19.1629 16.428 18.9989C17.1536 18.7833 17.4176 18.0874 16.974 17.5598C16.6576 17.1835 16.0069 16.9962 13.8075 16.6484C13.1845 16.5498 12.2799 16.3714 11.7971 16.2518C11.3143 16.1323 10.7361 16.0068 10.512 15.9729C10.0338 15.9008 8.84435 15.9027 8.39929 15.9763Z" fill="white"/>
<defs>
<filter id="filter0_d_228_582" x="0.228516" y="0.31543" width="27.4512" height="27.4473" filterUnits="userSpaceOnUse" color-interpolation-filters="sRGB">
<feFlood flood-opacity="0" result="BackgroundImageFix"/>
<feColorMatrix in="SourceAlpha" type="matrix" values="0 0 0 0 0 0 0 0 0 0 0 0 0 0 0 0 0 0 127 0" result="hardAlpha"/>
<feOffset dy="5"/>
<feGaussianBlur stdDeviation="4"/>
<feComposite in2="hardAlpha" operator="out"/>
<feColorMatrix type="matrix" values="0 0 0 0 1 0 0 0 0 1 0 0 0 0 1 0 0 0 0.15 0"/>
<feBlend mode="normal" in2="BackgroundImageFix" result="effect1_dropShadow_228_582"/>
<feBlend mode="normal" in="SourceGraphic" in2="effect1_dropShadow_228_582" result="shape"/>
</filter>
</defs>
</svg>
