<svg width="17" height="23" viewBox="0 0 17 23" fill="none" xmlns="http://www.w3.org/2000/svg">
<path fill-rule="evenodd" clip-rule="evenodd" d="M12.4111 5.12137C11.9242 5.38089 11.8507 5.4833 11.8098 5.95936C11.7705 6.4166 11.6521 6.6426 11.2679 6.99375C10.8762 7.35176 10.7429 7.43459 9.16484 8.30095C7.63434 9.14121 7.34848 9.26806 6.98533 9.26806C6.66486 9.26806 6.56723 9.16248 6.56723 8.81578C6.56723 8.50865 6.50714 8.36974 6.37423 8.36974C6.32189 8.36974 6.12403 8.45484 5.93453 8.55886C5.74498 8.66288 5.56513 8.74798 5.53487 8.74798C5.49946 8.74798 5.47979 8.65281 5.47979 8.4817C5.47979 8.05887 5.38154 7.94559 4.73683 7.6248C3.92097 7.2188 3.98409 7.20925 2.35837 7.98592C1.76023 8.27168 1.77347 8.23594 1.74467 9.64053L1.72103 10.7932L1.15367 11.0986C0.48225 11.4601 0.319039 11.5776 0.133938 11.8331C-0.0583493 12.0986 -0.0469549 12.2609 0.189918 12.6294C0.29696 12.796 0.391094 12.9395 0.399085 12.9483C0.407075 12.9572 1.34265 12.4838 2.47813 11.8964C3.61365 11.3089 4.56024 10.8283 4.58171 10.8283C4.60313 10.8283 5.46669 12.2272 6.50071 13.937C7.53472 15.6467 8.40354 17.08 8.43143 17.1221C8.4754 17.1883 8.98853 16.912 12.2645 15.0586C14.3448 13.8817 16.132 12.8451 16.236 12.7551C16.6342 12.4108 16.8028 11.7196 16.6118 11.2155C16.5463 11.0427 12.9379 5.0957 12.8137 4.95589C12.7974 4.93759 12.6162 5.01206 12.4111 5.12137ZM2.67689 12.8412L1.12691 13.6197L1.14029 16.1601L1.15367 18.7004L1.2792 19.0439C1.50875 19.672 1.95497 20.2413 2.45676 20.5461C2.60498 20.6361 2.73921 20.7098 2.75505 20.7098C2.77088 20.7098 2.78937 19.8064 2.79613 18.7024L2.80847 16.6949L3.84863 17.3433L4.88879 17.9917L4.90113 19.9791L4.91342 21.9664L5.59894 22.3603C6.66912 22.9752 6.7468 23.0009 7.53647 22.9995C8.07617 22.9986 8.24642 22.981 8.45843 22.9044C8.60145 22.8527 10.1972 21.9495 12.0044 20.8973C15.0126 19.1458 15.3168 18.9574 15.6023 18.6687C15.8048 18.464 15.9816 18.2236 16.1064 17.9832C16.432 17.3564 16.4487 17.2345 16.4487 15.4904C16.4487 14.6425 16.44 13.9488 16.4294 13.9488C16.4187 13.9488 14.5751 14.982 12.3325 16.2448C9.01482 18.1131 8.24425 18.5294 8.19707 18.4788C8.16515 18.4447 7.28314 16.9859 6.23703 15.2372C5.19091 13.4884 4.3107 12.0587 4.28096 12.0601C4.25122 12.0615 3.5294 12.413 2.67689 12.8412Z" fill="#001D4C"/>
<path fill-rule="evenodd" clip-rule="evenodd" d="M8.23154 0.0541873C7.82815 0.121372 7.27436 0.362216 6.93422 0.618379C5.94919 1.36011 5.47185 2.64929 5.53833 4.3883C5.57634 5.38221 5.79898 6.01808 6.29765 6.5567C7.04599 7.365 8.40704 7.57312 9.41864 7.03399C10.2606 6.58521 10.8102 5.73384 11.0895 4.44598C11.1975 3.94788 11.2256 2.37625 11.1351 1.89801C10.8663 0.477627 9.7905 -0.205474 8.23154 0.0541873ZM8.59039 0.739983C8.58009 0.791613 8.46061 0.845418 8.22203 0.905936C7.17147 1.17241 6.51858 2.09815 6.44237 3.42946C6.41154 3.96788 6.39064 4.06774 6.30871 4.06774C6.21183 4.06774 6.20616 4.01719 6.24294 3.48028C6.33987 2.06467 6.94377 1.15212 8.0462 0.755255C8.36317 0.641168 8.61157 0.634218 8.59039 0.739983ZM9.68341 1.39996C10.0191 1.49968 10.348 1.82496 10.4713 2.17928C10.544 2.38826 10.5603 2.56527 10.5576 3.12214C10.5498 4.71576 10.0609 5.88953 9.23704 6.2925C9.03638 6.3906 8.9327 6.408 8.55148 6.40748C8.17764 6.40701 8.06885 6.38909 7.90266 6.30077C7.29156 5.9761 6.99337 5.31777 6.99195 4.29033C6.99001 2.86801 7.55491 1.88321 8.6251 1.44327C8.95776 1.30649 9.31893 1.29174 9.68341 1.39996ZM8.65427 2.40012C8.50165 2.4189 8.49787 2.42462 8.52605 2.5935C8.55408 2.76134 8.54798 2.77094 8.35414 2.86356C8.11792 2.97647 7.97381 3.19509 7.9671 3.45078C7.95812 3.79365 8.1522 3.98764 8.65328 4.13644C8.78821 4.17648 8.94811 4.24173 9.00873 4.28144C9.13364 4.36328 9.15496 4.54626 9.04976 4.63354C8.94069 4.72408 8.61881 4.74758 8.38482 4.68205C8.26695 4.64904 8.15873 4.63387 8.14426 4.64829C8.12984 4.66276 8.10644 4.76105 8.09225 4.86672C8.06261 5.08752 8.08086 5.10118 8.46917 5.14856C8.71592 5.17867 8.71701 5.17957 8.73181 5.35881C8.74632 5.53507 8.7502 5.53848 8.92093 5.52429C9.08957 5.51025 9.09567 5.5033 9.10976 5.30832C9.12248 5.13267 9.14366 5.09863 9.27524 5.04256C9.58044 4.91249 9.73854 4.6115 9.69514 4.24329C9.6705 4.03474 9.41179 3.81592 9.04901 3.69683C8.61356 3.5539 8.55148 3.51513 8.55148 3.38629C8.55148 3.19901 8.65824 3.15471 9.04925 3.17982C9.44068 3.20492 9.40181 3.23277 9.47079 2.87798C9.48758 2.7916 9.37359 2.7456 9.14012 2.74456C8.96055 2.74376 8.88244 2.66901 8.88244 2.49804C8.88244 2.42523 8.86646 2.36906 8.84698 2.37322C8.8275 2.37738 8.74074 2.38949 8.65427 2.40012Z" fill="#F49825"/>
</svg>
