<svg width="40" height="31" viewBox="0 0 40 31" fill="none" xmlns="http://www.w3.org/2000/svg">
<path d="M3.6138 5.70341C4.08131 2.43082 6.88407 0 10.1899 0H32.1979C36.2404 0 39.3457 3.58042 38.774 7.5823L36.2433 25.2966C35.7758 28.5692 32.9731 31 29.6673 31H7.65928C3.61677 31 0.511489 27.4196 1.08319 23.4177L3.6138 5.70341Z" fill="#39A109"/>
<path d="M26.0144 17.9843V19.7908C26.0151 19.9585 25.9806 20.1245 25.9132 20.2781C25.8458 20.4318 25.747 20.5697 25.623 20.6831C25.499 20.7965 25.3527 20.8828 25.1933 20.9365C25.0339 20.9903 24.865 21.0102 24.6975 20.9951C22.8386 20.7938 21.0529 20.1606 19.4841 19.1465C18.0245 18.222 16.787 16.9884 15.8595 15.5335C14.8385 13.9626 14.2032 12.174 14.0049 10.3128C13.9898 10.1463 14.0097 9.97843 14.0632 9.81998C14.1167 9.66153 14.2028 9.51592 14.3159 9.39244C14.429 9.26896 14.5666 9.1703 14.72 9.10274C14.8735 9.03519 15.0393 9.00022 15.2071 9.00006H17.0194C17.3125 8.99718 17.5968 9.10067 17.819 9.29122C18.0413 9.48178 18.1865 9.74641 18.2276 10.0358C18.3041 10.6139 18.4459 11.1815 18.6504 11.7278C18.7317 11.9434 18.7493 12.1776 18.7011 12.4028C18.6529 12.628 18.541 12.8347 18.3786 12.9984L17.6114 13.7632C18.4713 15.2707 19.7236 16.5189 21.236 17.3761L22.0032 16.6114C22.1674 16.4495 22.3748 16.3379 22.6007 16.2899C22.8266 16.2419 23.0616 16.2594 23.2778 16.3404C23.8259 16.5443 24.3954 16.6857 24.9754 16.7619C25.2688 16.8032 25.5368 16.9505 25.7284 17.1759C25.92 17.4013 26.0218 17.689 26.0144 17.9843Z" stroke="white" stroke-width="0.600739" stroke-linecap="round" stroke-linejoin="round"/>
</svg>
