<svg width="40" height="40" viewBox="0 0 40 40" fill="none" xmlns="http://www.w3.org/2000/svg">
<rect width="40" height="40" rx="15" fill="white" fill-opacity="0.05"/>
<rect x="0.768368" y="0.768368" width="38.4633" height="38.4633" rx="14.2316" stroke="white" stroke-opacity="0.1" stroke-width="1.53674"/>
<path d="M20.0016 24.7996C20.6381 24.7996 21.2485 25.0525 21.6986 25.5026C22.1487 25.9526 22.4016 26.5631 22.4016 27.1996C22.4016 27.8361 22.1487 28.4466 21.6986 28.8967C21.2485 29.3468 20.6381 29.5996 20.0016 29.5996C19.365 29.5996 18.7546 29.3468 18.3045 28.8967C17.8544 28.4466 17.6016 27.8361 17.6016 27.1996C17.6016 26.5631 17.8544 25.9526 18.3045 25.5026C18.7546 25.0525 19.365 24.7996 20.0016 24.7996ZM20.0016 17.5996C20.6381 17.5996 21.2485 17.8525 21.6986 18.3026C22.1487 18.7526 22.4016 19.3631 22.4016 19.9996C22.4016 20.6361 22.1487 21.2466 21.6986 21.6967C21.2485 22.1468 20.6381 22.3996 20.0016 22.3996C19.365 22.3996 18.7546 22.1468 18.3045 21.6967C17.8544 21.2466 17.6016 20.6361 17.6016 19.9996C17.6016 19.3631 17.8544 18.7526 18.3045 18.3026C18.7546 17.8525 19.365 17.5996 20.0016 17.5996ZM22.4016 12.7996C22.4016 12.1631 22.1487 11.5526 21.6986 11.1026C21.2485 10.6525 20.6381 10.3996 20.0016 10.3996C19.365 10.3996 18.7546 10.6525 18.3045 11.1026C17.8544 11.5526 17.6016 12.1631 17.6016 12.7996C17.6016 13.4361 17.8544 14.0466 18.3045 14.4967C18.7546 14.9468 19.365 15.1996 20.0016 15.1996C20.6381 15.1996 21.2485 14.9468 21.6986 14.4967C22.1487 14.0466 22.4016 13.4361 22.4016 12.7996Z" fill="white"/>
</svg>
