<svg width="40" height="31" viewBox="0 0 40 31" fill="none" xmlns="http://www.w3.org/2000/svg">
<path d="M3.6138 5.70341C4.08131 2.43082 6.88407 0 10.1899 0H32.1979C36.2404 0 39.3457 3.58042 38.774 7.5823L36.2433 25.2966C35.7758 28.5692 32.9731 31 29.6673 31H7.65928C3.61677 31 0.511489 27.4196 1.08319 23.4177L3.6138 5.70341Z" fill="#0880EA"/>
<path d="M22.7379 23C22.4904 23 22.2428 22.9274 22.0317 22.7892L18.9305 20.7242H16.186C13.6817 20.7242 12 19.0446 12 16.5434V12.1808C12 9.6796 13.6817 8 16.186 8H23.4659C25.9702 8 27.6518 9.6796 27.6518 12.1808V16.5434C27.6518 18.8555 26.2104 20.4698 24.0119 20.6952V21.7276C24.0119 22.2002 23.7571 22.6292 23.3421 22.8473C23.1528 22.9491 22.9417 23 22.7379 23ZM16.186 9.08337C14.3077 9.08337 13.092 10.2976 13.092 12.1735V16.5361C13.092 18.412 14.3077 19.6263 16.186 19.6263H19.0979C19.2071 19.6263 19.309 19.6554 19.4037 19.7208L22.6432 21.8731C22.7233 21.924 22.7961 21.9022 22.8325 21.8803C22.8689 21.8585 22.9272 21.8148 22.9272 21.7203V20.1716C22.9272 19.8735 23.1747 19.6263 23.4732 19.6263C25.3514 19.6263 26.5671 18.412 26.5671 16.5361V12.1735C26.5671 10.2976 25.3514 9.08337 23.4732 9.08337H16.186Z" fill="white"/>
</svg>
