<svg width="48" height="48" viewBox="0 0 48 48" fill="none" xmlns="http://www.w3.org/2000/svg">
<rect width="48" height="48" rx="24" fill="#F49825"/>
<path d="M31.8641 16.151C31.4473 15.7232 30.8304 15.5638 30.2551 15.7316L16.8413 19.6323C16.2344 19.8009 15.8042 20.2849 15.6883 20.8998C15.5699 21.5256 15.9834 22.32 16.5237 22.6522L20.7179 25.23C21.1481 25.4943 21.7033 25.428 22.0593 25.069L26.8621 20.2363C27.1038 19.9846 27.504 19.9846 27.7458 20.2363C27.9875 20.4795 27.9875 20.8738 27.7458 21.1255L22.9346 25.959C22.5778 26.3172 22.5111 26.875 22.7737 27.3079L25.3364 31.5442C25.6366 32.0475 26.1534 32.3327 26.7203 32.3327C26.787 32.3327 26.8621 32.3327 26.9288 32.3243C27.579 32.2404 28.0959 31.7958 28.2877 31.1667L32.2643 17.77C32.4394 17.1996 32.281 16.5788 31.8641 16.151Z" fill="white"/>
</svg>
