<svg width="60" height="61" viewBox="0 0 60 61" fill="none" xmlns="http://www.w3.org/2000/svg">
<rect y="0.931641" width="60" height="60" rx="20" fill="white"/>
<rect x="0.5" y="1.43164" width="59" height="59" rx="19.5" stroke="#001D4C" stroke-opacity="0.1"/>
<path fill-rule="evenodd" clip-rule="evenodd" d="M32.8326 12.1185C29.4642 12.8048 27.2368 14.78 26.2459 17.9593C25.8824 19.1256 25.7847 20.1856 25.7841 22.9672L25.7836 25.5926L23.2394 25.594C20.4218 25.5954 20.3018 25.6169 20.1169 26.1526C19.961 26.6042 19.961 32.3862 20.1169 32.8412C20.29 33.3465 20.5293 33.3876 23.3327 33.3936L25.7836 33.3988V41.3857V49.3726L26.0088 49.6334L26.234 49.8941L29.58 49.9228C33.1857 49.9539 33.52 49.9211 33.7042 49.5189C33.7843 49.344 33.8129 47.1748 33.8129 41.2971V33.313L36.9374 33.2862C39.7912 33.2617 40.0764 33.245 40.2285 33.0934C40.3826 32.9401 40.3952 32.6635 40.3952 29.4485V25.9695L40.1826 25.7578C39.9712 25.5472 39.954 25.5459 36.8836 25.5192L33.7972 25.4924L33.8289 23.0101C33.8631 20.341 33.8848 20.2159 34.3975 19.7317C34.7886 19.3623 35.0147 19.3305 37.6258 19.278L40.1781 19.2268L40.4034 18.966L40.6286 18.7052V15.5466V12.3878L40.3994 12.1598L40.1702 11.9316L36.9215 11.9394C34.1533 11.9461 33.5486 11.9726 32.8326 12.1185Z" fill="#1976D2"/>
</svg>
