<svg width="45" height="44" viewBox="0 0 45 44" fill="none" xmlns="http://www.w3.org/2000/svg">
<path d="M29.7133 0.15332H15.2204C7.21623 0.15332 0.727539 6.64201 0.727539 14.6462V29.1391C0.727539 37.1433 7.21623 43.632 15.2204 43.632H29.7133C37.7175 43.632 44.2062 37.1433 44.2062 29.1391V14.6462C44.2062 6.64201 37.7175 0.15332 29.7133 0.15332Z" fill="#F49825"/>
<path d="M31.9289 26.8516H25.5874" stroke="white" stroke-width="1.35871" stroke-miterlimit="10" stroke-linecap="round" stroke-linejoin="round"/>
<path d="M16.5309 26.8516H13.812" stroke="white" stroke-width="1.35871" stroke-miterlimit="10" stroke-linecap="round" stroke-linejoin="round"/>
<path d="M31.9299 16.8877H29.2109" stroke="white" stroke-width="1.35871" stroke-miterlimit="10" stroke-linecap="round" stroke-linejoin="round"/>
<path d="M20.1535 16.8877H13.812" stroke="white" stroke-width="1.35871" stroke-miterlimit="10" stroke-linecap="round" stroke-linejoin="round"/>
<path d="M18.3408 24.1343H23.7754C24.7717 24.1343 25.5869 24.5872 25.5869 25.9458V27.7573C25.5869 29.116 24.7717 29.5688 23.7754 29.5688H18.3408C17.3445 29.5688 16.5293 29.116 16.5293 27.7573V25.9458C16.5293 24.5872 17.3445 24.1343 18.3408 24.1343Z" stroke="white" stroke-width="1.35871" stroke-miterlimit="10" stroke-linecap="round" stroke-linejoin="round"/>
<path d="M21.9644 14.1704H27.3989C28.3953 14.1704 29.2104 14.6233 29.2104 15.9819V17.7935C29.2104 19.1521 28.3953 19.605 27.3989 19.605H21.9644C20.968 19.605 20.1528 19.1521 20.1528 17.7935V15.9819C20.1528 14.6233 20.968 14.1704 21.9644 14.1704Z" stroke="white" stroke-width="1.35871" stroke-miterlimit="10" stroke-linecap="round" stroke-linejoin="round"/>
</svg>
