<svg width="48" height="48" viewBox="0 0 48 48" fill="none" xmlns="http://www.w3.org/2000/svg">
<rect width="48" height="48" rx="16" fill="#0F64EE"/>
<path d="M14 31C13.45 31 13 31.45 13 32C13 32.55 13.45 33 14 33H18V35H28C29.3 35 30.4 34.16 30.82 33H35V31H30.82C30.4 29.84 29.3 29 28 29H18V31H14ZM29 32C29 32.55 28.55 33 28 33H26V31H28C28.55 31 29 31.45 29 32ZM24 33H20V31H24V33ZM14 23C13.45 23 13 23.45 13 24C13 24.55 13.45 25 14 25H18V27H28C29.3 27 30.4 26.16 30.82 25H35V23H30.82C30.4 21.84 29.3 21 28 21H18V23H14ZM29 24C29 24.55 28.55 25 28 25H26V23H28C28.55 23 29 23.45 29 24ZM24 25H20V23H24V25ZM18 15H14C13.45 15 13 15.45 13 16C13 16.55 13.45 17 14 17H18V19H28C29.3 19 30.4 18.16 30.82 17H35V15H30.82C30.4 13.84 29.3 13 28 13H18V15ZM29 16C29 16.55 28.55 17 28 17H26V15H28C28.55 15 29 15.45 29 16ZM24 17H20V15H24V17Z" fill="white"/>
</svg>
