<svg width="164" height="164" viewBox="0 0 164 164" fill="none" xmlns="http://www.w3.org/2000/svg">
<circle cx="81.7496" cy="81.9168" r="81.7415" fill="white" fill-opacity="0.4"/>
<path d="M30.3218 101.915V108.905H28.619V101.915H30.3218ZM38.3072 108.905H36.6044L33.7565 104.593V108.905H32.0537V101.915H33.7565L36.6044 106.246V101.915H38.3072V108.905ZM48.702 101.915V108.905H46.9992V106.027H44.3504V108.905H42.6476V101.915H44.3504V104.653H46.9992V101.915H48.702ZM53.7351 108.975C53.0779 108.975 52.4738 108.822 51.9228 108.517C51.3784 108.211 50.9436 107.786 50.6183 107.242C50.2997 106.691 50.1403 106.074 50.1403 105.39C50.1403 104.706 50.2997 104.092 50.6183 103.548C50.9436 103.003 51.3784 102.578 51.9228 102.273C52.4738 101.968 53.0779 101.815 53.7351 101.815C54.3924 101.815 54.9931 101.968 55.5375 102.273C56.0885 102.578 56.52 103.003 56.832 103.548C57.1507 104.092 57.31 104.706 57.31 105.39C57.31 106.074 57.1507 106.691 56.832 107.242C56.5134 107.786 56.0819 108.211 55.5375 108.517C54.9931 108.822 54.3924 108.975 53.7351 108.975ZM53.7351 107.421C54.2928 107.421 54.7376 107.235 55.0695 106.864C55.4081 106.492 55.5773 106.001 55.5773 105.39C55.5773 104.773 55.4081 104.281 55.0695 103.916C54.7376 103.544 54.2928 103.358 53.7351 103.358C53.1709 103.358 52.7194 103.541 52.3809 103.906C52.0489 104.271 51.883 104.766 51.883 105.39C51.883 106.007 52.0489 106.502 52.3809 106.874C52.7194 107.239 53.1709 107.421 53.7351 107.421ZM60.4282 101.915V106.097C60.4282 106.515 60.5311 106.837 60.7369 107.063C60.9427 107.289 61.2447 107.401 61.643 107.401C62.0413 107.401 62.3467 107.289 62.5592 107.063C62.7716 106.837 62.8778 106.515 62.8778 106.097V101.915H64.5806V106.087C64.5806 106.711 64.4478 107.239 64.1823 107.67C63.9167 108.102 63.5583 108.427 63.1068 108.646C62.6621 108.865 62.1642 108.975 61.6132 108.975C61.0621 108.975 60.5676 108.869 60.1294 108.656C59.6979 108.437 59.356 108.112 59.1038 107.68C58.8515 107.242 58.7254 106.711 58.7254 106.087V101.915H60.4282ZM68.8035 108.975C68.2924 108.975 67.8343 108.892 67.4293 108.726C67.0244 108.56 66.6991 108.314 66.4535 107.989C66.2145 107.664 66.0883 107.272 66.0751 106.814H67.8874C67.914 107.073 68.0036 107.272 68.1563 107.411C68.309 107.544 68.5081 107.611 68.7537 107.611C69.006 107.611 69.2052 107.554 69.3512 107.441C69.4973 107.322 69.5703 107.159 69.5703 106.953C69.5703 106.781 69.5105 106.638 69.391 106.525C69.2782 106.412 69.1355 106.319 68.9629 106.246C68.7969 106.173 68.5579 106.09 68.2459 105.997C67.7945 105.858 67.426 105.719 67.1406 105.579C66.8551 105.44 66.6095 105.234 66.4037 104.962C66.1979 104.69 66.095 104.334 66.095 103.896C66.095 103.246 66.3307 102.738 66.802 102.373C67.2733 102.001 67.8874 101.815 68.6442 101.815C69.4143 101.815 70.035 102.001 70.5063 102.373C70.9777 102.738 71.2299 103.249 71.2631 103.906H69.4209C69.4076 103.68 69.3247 103.505 69.172 103.378C69.0193 103.246 68.8234 103.179 68.5845 103.179C68.3787 103.179 68.2127 103.236 68.0866 103.349C67.9604 103.455 67.8974 103.611 67.8974 103.817C67.8974 104.042 68.0036 104.218 68.216 104.344C68.4285 104.47 68.7604 104.607 69.2118 104.753C69.6632 104.905 70.0284 105.051 70.3072 105.191C70.5926 105.33 70.8383 105.533 71.0441 105.798C71.2499 106.064 71.3528 106.406 71.3528 106.824C71.3528 107.222 71.2499 107.584 71.0441 107.909C70.8449 108.235 70.5528 108.493 70.1678 108.686C69.7827 108.878 69.328 108.975 68.8035 108.975ZM74.6014 103.279V104.693H76.8817V106.007H74.6014V107.541H77.1805V108.905H72.8986V101.915H77.1805V103.279H74.6014ZM86.7194 104.165C86.7194 104.57 86.6265 104.942 86.4406 105.28C86.2547 105.612 85.9693 105.881 85.5842 106.087C85.1992 106.293 84.7212 106.396 84.1503 106.396H83.0948V108.905H81.392V101.915H84.1503C84.7079 101.915 85.1793 102.011 85.5643 102.203C85.9494 102.396 86.2381 102.661 86.4306 103C86.6232 103.339 86.7194 103.727 86.7194 104.165ZM84.0208 105.041C84.3461 105.041 84.5884 104.965 84.7478 104.812C84.9071 104.66 84.9868 104.444 84.9868 104.165C84.9868 103.886 84.9071 103.67 84.7478 103.518C84.5884 103.365 84.3461 103.289 84.0208 103.289H83.0948V105.041H84.0208ZM91.6687 108.905L90.2149 106.266H89.8066V108.905H88.1038V101.915H90.9617C91.5127 101.915 91.9808 102.011 92.3658 102.203C92.7575 102.396 93.0496 102.661 93.2421 103C93.4346 103.332 93.5309 103.704 93.5309 104.115C93.5309 104.58 93.3981 104.995 93.1325 105.36C92.8736 105.725 92.4886 105.984 91.9774 106.137L93.5906 108.905H91.6687ZM89.8066 105.061H90.8621C91.1742 105.061 91.4065 104.985 91.5592 104.832C91.7185 104.68 91.7982 104.464 91.7982 104.185C91.7982 103.919 91.7185 103.71 91.5592 103.558C91.4065 103.405 91.1742 103.329 90.8621 103.329H89.8066V105.061ZM98.4037 108.975C97.7465 108.975 97.1424 108.822 96.5914 108.517C96.047 108.211 95.6122 107.786 95.2869 107.242C94.9682 106.691 94.8089 106.074 94.8089 105.39C94.8089 104.706 94.9682 104.092 95.2869 103.548C95.6122 103.003 96.047 102.578 96.5914 102.273C97.1424 101.968 97.7465 101.815 98.4037 101.815C99.0609 101.815 99.6617 101.968 100.206 102.273C100.757 102.578 101.189 103.003 101.501 103.548C101.819 104.092 101.979 104.706 101.979 105.39C101.979 106.074 101.819 106.691 101.501 107.242C101.182 107.786 100.75 108.211 100.206 108.517C99.6617 108.822 99.0609 108.975 98.4037 108.975ZM98.4037 107.421C98.9613 107.421 99.4061 107.235 99.7381 106.864C100.077 106.492 100.246 106.001 100.246 105.39C100.246 104.773 100.077 104.281 99.7381 103.916C99.4061 103.544 98.9613 103.358 98.4037 103.358C97.8394 103.358 97.388 103.541 97.0494 103.906C96.7175 104.271 96.5515 104.766 96.5515 105.39C96.5515 106.007 96.7175 106.502 97.0494 106.874C97.388 107.239 97.8394 107.421 98.4037 107.421ZM108.751 104.165C108.751 104.57 108.658 104.942 108.472 105.28C108.287 105.612 108.001 105.881 107.616 106.087C107.231 106.293 106.753 106.396 106.182 106.396H105.127V108.905H103.424V101.915H106.182C106.74 101.915 107.211 102.011 107.596 102.203C107.981 102.396 108.27 102.661 108.462 103C108.655 103.339 108.751 103.727 108.751 104.165ZM106.053 105.041C106.378 105.041 106.62 104.965 106.78 104.812C106.939 104.66 107.019 104.444 107.019 104.165C107.019 103.886 106.939 103.67 106.78 103.518C106.62 103.365 106.378 103.289 106.053 103.289H105.127V105.041H106.053ZM111.838 103.279V104.693H114.119V106.007H111.838V107.541H114.418V108.905H110.136V101.915H114.418V103.279H111.838ZM119.586 108.905L118.132 106.266H117.724V108.905H116.021V101.915H118.879C119.43 101.915 119.898 102.011 120.283 102.203C120.675 102.396 120.967 102.661 121.159 103C121.352 103.332 121.448 103.704 121.448 104.115C121.448 104.58 121.315 104.995 121.05 105.36C120.791 105.725 120.406 105.984 119.895 106.137L121.508 108.905H119.586ZM117.724 105.061H118.779C119.091 105.061 119.324 104.985 119.476 104.832C119.636 104.68 119.715 104.464 119.715 104.185C119.715 103.919 119.636 103.71 119.476 103.558C119.324 103.405 119.091 103.329 118.779 103.329H117.724V105.061ZM128.044 101.915V103.279H126.191V108.905H124.489V103.279H122.636V101.915H128.044ZM135.391 101.915L132.971 106.595V108.905H131.268V106.595L128.848 101.915H130.78L132.134 104.842L133.479 101.915H135.391Z" fill="white"/>
<path d="M39.5524 114.109H123.996L119.017 121.887L123.996 129.665H39.5524L44.5313 121.887L39.5524 114.109Z" fill="url(#paint0_linear_1_173)"/>
<path d="M53.7241 125.299C53.3657 125.299 53.0102 125.267 52.6576 125.201C52.3111 125.141 52.0273 125.057 51.8062 124.95V124.125C52.3798 124.394 52.9982 124.529 53.6614 124.529C54.5935 124.529 55.0595 124.215 55.0595 123.588C55.0595 123.373 55.0087 123.199 54.9071 123.068C54.8056 122.936 54.6592 122.823 54.468 122.727C54.2768 122.626 53.9661 122.488 53.5359 122.315C52.9444 122.076 52.5172 121.813 52.2544 121.526C51.9915 121.24 51.86 120.878 51.86 120.442C51.86 120.113 51.9496 119.824 52.1289 119.573C52.3081 119.316 52.5591 119.119 52.8817 118.981C53.2043 118.838 53.5748 118.766 53.993 118.766C54.3336 118.766 54.6413 118.793 54.9161 118.847C55.1909 118.901 55.4598 118.987 55.7227 119.107V119.895C55.2029 119.662 54.6771 119.546 54.1454 119.546C53.7152 119.546 53.3866 119.623 53.1595 119.779C52.9325 119.934 52.819 120.155 52.819 120.442C52.819 120.639 52.8668 120.806 52.9624 120.944C53.0639 121.075 53.2103 121.195 53.4015 121.302C53.5987 121.404 53.8884 121.532 54.2708 121.688C54.695 121.861 55.0296 122.025 55.2746 122.181C55.5195 122.336 55.7048 122.527 55.8302 122.754C55.9617 122.975 56.0274 123.253 56.0274 123.588C56.0274 124.131 55.8332 124.553 55.4449 124.851C55.0565 125.15 54.4829 125.299 53.7241 125.299ZM61.8339 125.299C61.35 125.299 60.9228 125.21 60.5524 125.031C60.1879 124.845 59.9011 124.583 59.692 124.242C59.4889 123.895 59.3873 123.489 59.3873 123.023C59.3873 122.563 59.4889 122.16 59.692 121.813C59.8951 121.467 60.1819 121.201 60.5524 121.016C60.9228 120.824 61.35 120.729 61.8339 120.729C62.3179 120.729 62.7451 120.824 63.1155 121.016C63.486 121.201 63.7727 121.467 63.9759 121.813C64.185 122.16 64.2896 122.563 64.2896 123.023C64.2896 123.489 64.185 123.895 63.9759 124.242C63.7727 124.583 63.486 124.845 63.1155 125.031C62.7451 125.21 62.3179 125.299 61.8339 125.299ZM61.8339 124.583C62.3 124.583 62.6704 124.439 62.9452 124.152C63.2201 123.866 63.3575 123.489 63.3575 123.023C63.3575 122.539 63.2201 122.157 62.9452 121.876C62.6704 121.595 62.3 121.455 61.8339 121.455C61.3679 121.455 60.9975 121.595 60.7226 121.876C60.4478 122.157 60.3104 122.539 60.3104 123.023C60.3104 123.489 60.4478 123.866 60.7226 124.152C60.9975 124.439 61.3679 124.583 61.8339 124.583ZM67.9615 118.542H68.8667V125.165H67.9615V118.542ZM74.4361 125.299C73.8566 125.299 73.4174 125.144 73.1187 124.833C72.8259 124.523 72.6796 124.108 72.6796 123.588V120.863H73.5847V123.552C73.5847 124.239 73.9283 124.583 74.6154 124.583C75.2188 124.583 75.6908 124.311 76.0314 123.767V120.863H76.9366V125.165H76.0583V124.556C75.8551 124.813 75.6132 125.001 75.3323 125.12C75.0575 125.24 74.7588 125.299 74.4361 125.299ZM82.4448 125.299C82.0086 125.299 81.671 125.174 81.432 124.923C81.199 124.672 81.0825 124.317 81.0825 123.857V121.562H80.4283V120.863H81.0825V119.573H81.9967V120.863H83.0542V121.562H81.9967V123.794C81.9967 124.081 82.0504 124.284 82.158 124.403C82.2715 124.523 82.4746 124.583 82.7674 124.583C82.9407 124.583 83.1139 124.544 83.2872 124.466V125.183C83.0602 125.261 82.7793 125.299 82.4448 125.299ZM87.3562 120.021C87.2068 120.021 87.0814 119.97 86.9798 119.868C86.8782 119.767 86.8274 119.641 86.8274 119.492C86.8274 119.343 86.8782 119.217 86.9798 119.116C87.0814 119.014 87.2068 118.963 87.3562 118.963C87.5116 118.963 87.64 119.014 87.7416 119.116C87.8491 119.217 87.9029 119.343 87.9029 119.492C87.9029 119.641 87.8491 119.767 87.7416 119.868C87.64 119.97 87.5116 120.021 87.3562 120.021ZM86.8991 120.863H87.8222V125.165H86.8991V120.863ZM94.024 125.299C93.5401 125.299 93.1129 125.21 92.7424 125.031C92.378 124.845 92.0912 124.583 91.8821 124.242C91.6789 123.895 91.5774 123.489 91.5774 123.023C91.5774 122.563 91.6789 122.16 91.8821 121.813C92.0852 121.467 92.372 121.201 92.7424 121.016C93.1129 120.824 93.5401 120.729 94.024 120.729C94.508 120.729 94.9352 120.824 95.3056 121.016C95.676 121.201 95.9628 121.467 96.166 121.813C96.3751 122.16 96.4796 122.563 96.4796 123.023C96.4796 123.489 96.3751 123.895 96.166 124.242C95.9628 124.583 95.676 124.845 95.3056 125.031C94.9352 125.21 94.508 125.299 94.024 125.299ZM94.024 124.583C94.49 124.583 94.8605 124.439 95.1353 124.152C95.4102 123.866 95.5476 123.489 95.5476 123.023C95.5476 122.539 95.4102 122.157 95.1353 121.876C94.8605 121.595 94.49 121.455 94.024 121.455C93.558 121.455 93.1876 121.595 92.9127 121.876C92.6379 122.157 92.5005 122.539 92.5005 123.023C92.5005 123.489 92.6379 123.866 92.9127 124.152C93.1876 124.439 93.558 124.583 94.024 124.583ZM100.152 120.863H101.03V121.482C101.233 121.225 101.481 121.036 101.774 120.917C102.072 120.792 102.383 120.729 102.706 120.729C103.279 120.729 103.707 120.881 103.987 121.186C104.268 121.491 104.409 121.9 104.409 122.414V125.165H103.503V122.503C103.503 121.804 103.169 121.455 102.5 121.455C102.213 121.455 101.944 121.523 101.693 121.661C101.448 121.792 101.236 121.995 101.057 122.27V125.165H100.152V120.863ZM109.8 125.299C109.502 125.299 109.185 125.261 108.85 125.183C108.516 125.111 108.253 125.013 108.062 124.887V124.116C108.295 124.254 108.563 124.367 108.868 124.457C109.173 124.541 109.469 124.583 109.755 124.583C110.078 124.583 110.314 124.544 110.463 124.466C110.613 124.388 110.688 124.263 110.688 124.09C110.688 123.958 110.652 123.854 110.58 123.776C110.514 123.692 110.398 123.618 110.23 123.552C110.069 123.486 109.824 123.408 109.496 123.319C109.143 123.217 108.862 123.116 108.653 123.014C108.45 122.907 108.295 122.772 108.187 122.611C108.086 122.45 108.035 122.24 108.035 121.983C108.035 121.571 108.196 121.261 108.519 121.051C108.847 120.836 109.286 120.729 109.836 120.729C110.123 120.729 110.404 120.756 110.679 120.809C110.953 120.863 111.174 120.938 111.342 121.034V121.786C111.168 121.685 110.953 121.604 110.696 121.544C110.446 121.485 110.189 121.455 109.926 121.455C109.609 121.455 109.367 121.494 109.2 121.571C109.033 121.649 108.949 121.786 108.949 121.983C108.949 122.109 108.985 122.211 109.056 122.288C109.128 122.366 109.242 122.435 109.397 122.494C109.558 122.548 109.812 122.62 110.159 122.709C110.702 122.859 111.079 123.035 111.288 123.238C111.503 123.441 111.611 123.722 111.611 124.081C111.611 124.451 111.458 124.747 111.154 124.968C110.849 125.189 110.398 125.299 109.8 125.299Z" fill="white"/>
<path fill-rule="evenodd" clip-rule="evenodd" d="M85.9184 44.6381L94.8324 35.7694L94.3181 35.1589L84.848 44.1948V68.6859H85.9184V44.6381Z" fill="url(#paint1_linear_1_173)"/>
<path fill-rule="evenodd" clip-rule="evenodd" d="M67.1716 81.9168L67.1716 61.6182L68.1674 61.6182L68.1674 81.9168L67.1716 81.9168Z" fill="url(#paint2_linear_1_173)"/>
<path d="M71.2703 69.9548L71.2703 83.4366" stroke="white" stroke-width="1.07035" stroke-linecap="round"/>
<path d="M74.3354 74.0332L74.3354 83.4364" stroke="white" stroke-width="1.07035" stroke-linecap="round"/>
<path fill-rule="evenodd" clip-rule="evenodd" d="M75.681 85.2588C75.681 85.5544 75.4414 85.794 75.1458 85.794H66.5904C66.2948 85.794 66.0552 85.5544 66.0552 85.2588C66.0552 84.9632 66.2948 84.7236 66.5904 84.7236H75.1458C75.4414 84.7236 75.681 84.9632 75.681 85.2588Z" fill="white"/>
<path fill-rule="evenodd" clip-rule="evenodd" d="M77.7837 87.8233C77.7837 88.1188 77.5441 88.3584 77.2486 88.3584L64.4556 88.3584C64.16 88.3584 63.9204 88.1188 63.9204 87.8233C63.9204 87.5277 64.16 87.2881 64.4556 87.2881L77.2486 87.2881C77.5441 87.2881 77.7837 87.5277 77.7837 87.8233Z" fill="white"/>
<path fill-rule="evenodd" clip-rule="evenodd" d="M74.4023 48.1359C74.6979 48.1384 74.9355 48.3799 74.9331 48.6755L74.8097 63.5516C74.8073 63.8472 74.5657 64.0848 74.2701 64.0823C73.9746 64.0799 73.737 63.8383 73.7394 63.5427L73.8627 48.6666C73.8652 48.3711 74.1068 48.1335 74.4023 48.1359Z" fill="white"/>
<path d="M70.778 57.3113L70.778 47.9443" stroke="white" stroke-width="1.07035" stroke-linecap="round"/>
<path fill-rule="evenodd" clip-rule="evenodd" d="M68.1673 47.9076L68.1673 61.6169L67.1715 61.6169L67.1715 47.9076L68.1673 47.9076Z" fill="url(#paint3_linear_1_173)"/>
<path fill-rule="evenodd" clip-rule="evenodd" d="M66.0856 46.0821C66.0881 45.7865 66.3296 45.5489 66.6252 45.5514L75.1804 45.6223C75.4759 45.6247 75.7136 45.8663 75.7111 46.1619C75.7087 46.4574 75.4671 46.695 75.1715 46.6926L66.6163 46.6217C66.3208 46.6192 66.0832 46.3776 66.0856 46.0821Z" fill="white"/>
<path fill-rule="evenodd" clip-rule="evenodd" d="M64.0035 43.501C64.006 43.2055 64.2476 42.9679 64.5431 42.9703L77.3357 43.0764C77.6312 43.0788 77.8688 43.3204 77.8664 43.616C77.8639 43.9115 77.6223 44.1491 77.3268 44.1467L64.5343 44.0406C64.2387 44.0382 64.0011 43.7966 64.0035 43.501Z" fill="white"/>
<path fill-rule="evenodd" clip-rule="evenodd" d="M94.3197 82.6312L70.5815 58.7584L67.1355 62.4002L94.3197 90.0445H99.7146V41.63L94.3197 35.156V82.6312ZM95.6511 44.6042L98.8314 44.881V46.0359L95.6511 46.1051V44.6042ZM98.8314 50.0516L95.6512 49.7749V51.2757L98.8314 51.2066V50.0516ZM95.6512 54.9459L98.8314 55.2226V56.3775L95.6512 56.4467V54.9459ZM98.8314 60.3935L95.6512 60.1168V61.6176L98.8314 61.5484V60.3935ZM95.6512 65.2877L98.8314 65.5644V66.7194L95.6512 66.7885V65.2877ZM98.8314 43.212L95.6511 42.9353V44.4361L98.8314 44.367V43.212ZM95.6511 48.1052L98.8314 48.3819V49.5369L95.6511 49.606V48.1052ZM98.8314 53.5528L95.6511 53.2761V54.7769L98.8314 54.7078V53.5528ZM95.6511 58.447L98.8314 58.7237V59.8787L95.6511 59.9478V58.447ZM98.8314 63.8946L95.6511 63.6179V65.1187L98.8314 65.0496V63.8946Z" fill="url(#paint4_linear_1_173)"/>
<line x1="85.0662" y1="55.6939" x2="94.8109" y2="49.2965" stroke="url(#paint5_linear_1_173)" stroke-width="0.99579"/>
<line x1="85.076" y1="57.7814" x2="94.5691" y2="51.861" stroke="url(#paint6_linear_1_173)" stroke-width="0.99579"/>
<defs>
<linearGradient id="paint0_linear_1_173" x1="123.996" y1="123.67" x2="86.7529" y2="85.8341" gradientUnits="userSpaceOnUse">
<stop stop-color="#FC302D"/>
<stop offset="1" stop-color="#E98100"/>
</linearGradient>
<linearGradient id="paint1_linear_1_173" x1="94.8324" y1="55.765" x2="85.9118" y2="55.2679" gradientUnits="userSpaceOnUse">
<stop stop-color="#FC302D"/>
<stop offset="1" stop-color="#E98100"/>
</linearGradient>
<linearGradient id="paint2_linear_1_173" x1="67.5553" y1="81.9168" x2="72.0176" y2="80.747" gradientUnits="userSpaceOnUse">
<stop stop-color="#FC302D"/>
<stop offset="1" stop-color="#E98100"/>
</linearGradient>
<linearGradient id="paint3_linear_1_173" x1="67.9754" y1="47.9076" x2="65.6775" y2="48.3535" gradientUnits="userSpaceOnUse">
<stop stop-color="#FC302D"/>
<stop offset="1" stop-color="#E98100"/>
</linearGradient>
<linearGradient id="paint4_linear_1_173" x1="99.7147" y1="68.8912" x2="70.6601" y2="65.6396" gradientUnits="userSpaceOnUse">
<stop stop-color="#FC302D"/>
<stop offset="1" stop-color="#E98100"/>
</linearGradient>
<linearGradient id="paint5_linear_1_173" x1="95.4214" y1="50.2265" x2="91.733" y2="47.9138" gradientUnits="userSpaceOnUse">
<stop stop-color="#FC302D"/>
<stop offset="1" stop-color="#E98100"/>
</linearGradient>
<linearGradient id="paint6_linear_1_173" x1="95.1578" y1="52.805" x2="91.514" y2="50.4818" gradientUnits="userSpaceOnUse">
<stop stop-color="#FC302D"/>
<stop offset="1" stop-color="#E98100"/>
</linearGradient>
</defs>
</svg>
