<svg width="60" height="61" viewBox="0 0 60 61" fill="none" xmlns="http://www.w3.org/2000/svg">
<rect y="0.931641" width="60" height="60" rx="20" fill="white"/>
<rect x="0.5" y="1.43164" width="59" height="59" rx="19.5" stroke="#001D4C" stroke-opacity="0.1"/>
<path d="M34.6021 38.8139C36.4191 37.7182 37.7391 36.203 38.5276 34.2171C38.399 34.1486 38.2791 34.1743 38.1676 34.1743C36.0592 34.1743 33.9507 34.1743 31.8336 34.1743C31.028 34.1743 30.668 33.8233 30.668 33.0272C30.668 31.8202 30.668 30.6132 30.668 29.3977C30.668 28.6872 31.0451 28.3105 31.7651 28.3105C35.7506 28.3105 39.7361 28.3105 43.7217 28.3105C44.4502 28.3105 44.8016 28.6187 44.8873 29.3549C45.3673 33.3867 44.3216 36.9991 41.836 40.1921C40.6532 41.7072 39.2047 42.9399 37.5162 43.8815C36.5477 42.1952 35.5792 40.5003 34.6021 38.8139Z" fill="#167EE5"/>
<path d="M34.6004 38.8128C35.5775 40.5077 36.546 42.1941 37.5231 43.889C36.7688 44.4026 35.9289 44.745 35.0803 45.0532C28.4121 47.4671 20.8096 44.7621 17.1754 38.6673C17.124 38.5817 17.0897 38.4961 17.0469 38.4105C18.7268 37.4432 20.4153 36.4673 22.0952 35.5C22.6009 36.2533 23.1323 36.9895 23.8094 37.6058C25.5236 39.1638 27.5378 40.0112 29.852 40.0369C31.4377 40.0626 32.9376 39.7031 34.3347 38.9326C34.4204 38.8813 34.5147 38.847 34.6004 38.8128Z" fill="#13B347"/>
<path d="M22.096 35.492C20.4161 36.4593 18.7276 37.4351 17.0476 38.4024C16.3191 37.2468 15.8134 35.9885 15.4877 34.6702C14.5277 30.8352 14.982 27.18 16.8762 23.696C16.9276 23.6019 16.9876 23.5163 17.0476 23.4307C18.7276 24.398 20.4161 25.3738 22.096 26.3411C21.736 27.0773 21.376 27.8135 21.1789 28.6181C20.596 30.9379 20.8617 33.1465 22.0017 35.2523C22.036 35.3379 22.0617 35.4149 22.096 35.492Z" fill="#FED401"/>
<path d="M22.0952 26.3497C20.4153 25.3824 18.7268 24.4066 17.0469 23.4393C17.6726 22.2665 18.4868 21.2479 19.4296 20.3148C21.7867 17.9779 24.6151 16.5654 27.9064 16.0775C28.5921 15.9748 29.2863 15.9063 29.9806 15.9405C29.9806 17.8837 29.9806 19.8354 29.9806 21.7786C28.8663 21.83 27.7692 21.9926 26.7236 22.412C24.8465 23.1653 23.3637 24.3895 22.2752 26.0929C22.2238 26.1871 22.1552 26.2641 22.0952 26.3497Z" fill="#FE4B27"/>
<path d="M29.9805 21.7785C29.9805 19.8353 29.9805 17.8836 29.9805 15.9405C32.0889 15.8891 34.0946 16.3428 36.0145 17.1817C37.3858 17.7809 38.6372 18.577 39.7686 19.5443C40.2914 19.9894 40.3429 20.5972 39.8714 21.0851C38.9801 21.9925 38.0801 22.8913 37.1716 23.7901C36.7602 24.201 36.2288 24.2267 35.7831 23.8672C34.5145 22.8485 33.0832 22.2065 31.4804 21.924C30.9833 21.8384 30.4776 21.8727 29.9805 21.7785Z" fill="#D83F22"/>
</svg>
