<svg width="40" height="40" viewBox="0 0 40 40" fill="none" xmlns="http://www.w3.org/2000/svg">
<rect width="40" height="40" rx="14.4929" fill="white" fill-opacity="0.2"/>
<rect x="0.5" y="0.5" width="39" height="39" rx="13.9929" stroke="white" stroke-opacity="0.5"/>
<path d="M19.2652 27.577L19.2653 27.5769L19.2545 27.5732C17.7829 27.0685 15.829 25.8974 14.2505 24.1686C12.6788 22.4472 11.5195 20.2197 11.5195 17.591C11.5195 15.0854 13.5452 13.0576 16.0279 13.0576C17.2375 13.0576 18.362 13.5287 19.1953 14.369L19.7279 14.9062L20.2604 14.369C21.0937 13.5287 22.2182 13.0576 23.4279 13.0576C25.9098 13.0576 27.9362 15.093 27.9362 17.591C27.9362 20.2241 26.7768 22.4515 25.2054 24.1715C23.6271 25.8991 21.6733 27.0684 20.2012 27.5732L20.2012 27.5731L20.1905 27.577C20.0876 27.614 19.9294 27.641 19.7279 27.641C19.5263 27.641 19.3681 27.614 19.2652 27.577Z" stroke="white" stroke-width="1.5"/>
</svg>
