<svg width="18" height="19" viewBox="0 0 18 19" fill="none" xmlns="http://www.w3.org/2000/svg">
<path d="M10.897 7.60293L7.10195 11.3979C6.61445 10.9104 6.31445 10.2429 6.31445 9.50043C6.31445 8.01543 7.51445 6.81543 8.99945 6.81543C9.74195 6.81543 10.4095 7.11543 10.897 7.60293Z" stroke="#001D4C" stroke-linecap="round" stroke-linejoin="round"/>
<path d="M13.3659 4.82785C12.0534 3.83785 10.5534 3.29785 9.00086 3.29785C6.35336 3.29785 3.88586 4.85785 2.16836 7.55785C1.49336 8.61535 1.49336 10.3929 2.16836 11.4504C2.76086 12.3804 3.45086 13.1829 4.20086 13.8279" stroke="#001D4C" stroke-linecap="round" stroke-linejoin="round"/>
<path d="M6.31445 15.1473C7.16945 15.5073 8.07695 15.7023 8.99945 15.7023C11.647 15.7023 14.1145 14.1423 15.832 11.4423C16.507 10.3848 16.507 8.60727 15.832 7.54977C15.5845 7.15977 15.3145 6.79227 15.037 6.44727" stroke="#001D4C" stroke-linecap="round" stroke-linejoin="round"/>
<path d="M11.6326 10.0254C11.4376 11.0829 10.5751 11.9454 9.51758 12.1404" stroke="#001D4C" stroke-linecap="round" stroke-linejoin="round"/>
<path d="M7.1025 11.3975L1.5 17" stroke="#001D4C" stroke-linecap="round" stroke-linejoin="round"/>
<path d="M16.5009 2L10.8984 7.6025" stroke="#292D32" stroke-width="1.5" stroke-linecap="round" stroke-linejoin="round"/>
</svg>
