<svg width="300" height="228" viewBox="0 0 300 228" fill="none" xmlns="http://www.w3.org/2000/svg">
<path d="M300 0H0V110.196C0 156.572 42.5134 166.642 56.9519 165.507H235.829C283.316 168.911 298.396 208.054 300 227.2V0Z" fill="#001D4C"/>
<mask id="mask0_156_5200" style="mask-type:alpha" maskUnits="userSpaceOnUse" x="0" y="0" width="300" height="228">
<path d="M300 0H0V110.196C0 156.572 42.5134 166.642 56.9519 165.507H235.829C283.316 168.911 298.396 208.054 300 227.2V0Z" fill="#001D4C"/>
</mask>
<g mask="url(#mask0_156_5200)">
<rect x="65.5854" y="18.4004" width="62.4" height="155.2" rx="31.2" transform="rotate(45.7581 65.5854 18.4004)" fill="url(#paint0_linear_156_5200)" fill-opacity="0.05"/>
<rect x="61.5854" y="-4" width="62.4" height="155.2" rx="31.2" transform="rotate(45.7581 61.5854 -4)" fill="url(#paint1_linear_156_5200)" fill-opacity="0.05"/>
</g>
<defs>
<linearGradient id="paint0_linear_156_5200" x1="96.7854" y1="18.4004" x2="96.7854" y2="173.6" gradientUnits="userSpaceOnUse">
<stop stop-color="white"/>
<stop offset="1" stop-color="white" stop-opacity="0"/>
</linearGradient>
<linearGradient id="paint1_linear_156_5200" x1="92.7854" y1="-4" x2="92.7854" y2="151.2" gradientUnits="userSpaceOnUse">
<stop stop-color="white"/>
<stop offset="1" stop-color="white" stop-opacity="0"/>
</linearGradient>
</defs>
</svg>
