<svg width="80" height="80" viewBox="0 0 80 80" fill="none" xmlns="http://www.w3.org/2000/svg">
<g filter="url(#filter0_d_344_434)">
<circle cx="45" cy="35" r="30" fill="#E98100"/>
</g>
<path d="M46.752 38.3836V35.3506L49.4259 35.5704L52.1437 36.2297L55.0807 42.4715L57.4917 46.911L56.5273 47.922L48.1109 45.8121L46.752 38.3836Z" fill="#18396F"/>
<path d="M32.5499 47.0878L31.8047 45.6812L34.8293 38.868L36.6704 35.5273L40.8348 36.1867L38.9937 48.4944L38.7745 48.846L32.5499 47.0878Z" fill="#18396F"/>
<path d="M43.8607 47.5263L38.5566 48.6692L39.4772 37.1087L39.8279 35.7021H41.9758L47.2799 36.0098L48.5073 45.1967V45.6802L43.8607 47.5263Z" fill="#001D4C"/>
<path d="M49.2087 46.3551L48.8246 46.2481L48.4462 46.3735L38.6475 49.6206L30.8046 46.9752L36.4236 34.965L38.463 35.3206L38.5745 35.34H38.6877H50.3709L52.2227 35.6495L58.5809 48.9675L49.2087 46.3551Z" stroke="#FEFEFE" stroke-width="2.61538"/>
<g filter="url(#filter1_d_344_434)">
<path fill-rule="evenodd" clip-rule="evenodd" d="M43.0883 19.0755C39.6419 19.8113 37.2165 23.0031 37.5314 26.3884C37.6476 27.6382 38.1412 28.9983 39.3307 31.3468C40.7718 34.1914 44.1232 39.4835 44.4838 39.4835C44.7607 39.4835 47.6195 35.1779 49.2302 32.3349C50.2241 30.5804 51.0918 28.577 51.3703 27.3935C51.7654 25.715 51.4168 23.6382 50.5049 22.2376C49.1899 20.218 47.1754 19.0846 44.7615 19.0065C44.1169 18.9856 43.3641 19.0167 43.0883 19.0755ZM46.537 21.8998C48.6172 22.9233 49.4653 25.3068 48.4811 27.3637C48.0293 28.308 47.3811 28.9372 46.3651 29.4175C45.7931 29.688 45.5125 29.7388 44.5764 29.7412C43.631 29.7437 43.3633 29.6958 42.7729 29.4192C41.8031 28.9646 41.129 28.3103 40.669 27.3766C40.3299 26.6881 40.2751 26.4453 40.2751 25.6322C40.2751 23.1548 42.2206 21.3564 44.7843 21.4642C45.5516 21.4963 45.8859 21.5794 46.537 21.8998Z" fill="#010B1A"/>
</g>
<defs>
<filter id="filter0_d_344_434" x="0" y="0" width="80" height="80" filterUnits="userSpaceOnUse" color-interpolation-filters="sRGB">
<feFlood flood-opacity="0" result="BackgroundImageFix"/>
<feColorMatrix in="SourceAlpha" type="matrix" values="0 0 0 0 0 0 0 0 0 0 0 0 0 0 0 0 0 0 127 0" result="hardAlpha"/>
<feOffset dx="-5" dy="5"/>
<feGaussianBlur stdDeviation="5"/>
<feComposite in2="hardAlpha" operator="out"/>
<feColorMatrix type="matrix" values="0 0 0 0 0.00986111 0 0 0 0 0.100338 0 0 0 0 0.295833 0 0 0 0.3 0"/>
<feBlend mode="normal" in2="BackgroundImageFix" result="effect1_dropShadow_344_434"/>
<feBlend mode="normal" in="SourceGraphic" in2="effect1_dropShadow_344_434" result="shape"/>
</filter>
<filter id="filter1_d_344_434" x="36.1028" y="18.533" width="15.8955" height="22.3515" filterUnits="userSpaceOnUse" color-interpolation-filters="sRGB">
<feFlood flood-opacity="0" result="BackgroundImageFix"/>
<feColorMatrix in="SourceAlpha" type="matrix" values="0 0 0 0 0 0 0 0 0 0 0 0 0 0 0 0 0 0 127 0" result="hardAlpha"/>
<feOffset dx="-0.467033" dy="0.467033"/>
<feGaussianBlur stdDeviation="0.467033"/>
<feComposite in2="hardAlpha" operator="out"/>
<feColorMatrix type="matrix" values="0 0 0 0 0.00986111 0 0 0 0 0.100338 0 0 0 0 0.295833 0 0 0 0.3 0"/>
<feBlend mode="normal" in2="BackgroundImageFix" result="effect1_dropShadow_344_434"/>
<feBlend mode="normal" in="SourceGraphic" in2="effect1_dropShadow_344_434" result="shape"/>
</filter>
</defs>
</svg>
