<svg width="43" height="43" viewBox="0 0 43 43" fill="none" xmlns="http://www.w3.org/2000/svg">
<rect width="42.3636" height="42.3636" rx="21.1818" fill="#F49825"/>
<path fill-rule="evenodd" clip-rule="evenodd" d="M25.7753 16.2831C25.8091 16.3424 25.8685 16.3847 25.9447 16.3847C27.9782 16.3847 29.6388 18.0435 29.6388 20.0747V25.1019C29.6388 27.1331 27.9782 28.7919 25.9447 28.7919H16.3875C14.3455 28.7919 12.6934 27.1331 12.6934 25.1019V20.0747C12.6934 18.0435 14.3455 16.3847 16.3875 16.3847C16.4553 16.3847 16.523 16.3508 16.5485 16.2831L16.5993 16.1816C16.6285 16.1201 16.6585 16.0569 16.6889 15.9928C16.9057 15.5363 17.1455 15.0312 17.2941 14.7343C17.6838 13.9726 18.3447 13.5495 19.1665 13.541H23.1572C23.979 13.5495 24.6484 13.9726 25.0381 14.7343C25.1716 15.0009 25.3749 15.4304 25.5708 15.8443C25.6113 15.9297 25.6514 16.0144 25.6905 16.0969L25.7753 16.2831ZM25.1575 19.533C25.1575 19.9562 25.4964 20.2947 25.9201 20.2947C26.3437 20.2947 26.6911 19.9562 26.6911 19.533C26.6911 19.1098 26.3437 18.7628 25.9201 18.7628C25.4964 18.7628 25.1575 19.1098 25.1575 19.533ZM19.7008 20.845C20.099 20.4472 20.6159 20.2356 21.1666 20.2356C21.7173 20.2356 22.2342 20.4472 22.6239 20.8365C23.0137 21.2258 23.2255 21.7421 23.2255 22.2922C23.217 23.4263 22.3019 24.3488 21.1666 24.3488C20.6159 24.3488 20.099 24.1372 19.7093 23.7479C19.3195 23.3586 19.1077 22.8423 19.1077 22.2922V22.2838C19.0993 21.7506 19.3111 21.2343 19.7008 20.845ZM23.5134 24.6453C22.9119 25.2462 22.0816 25.6185 21.1665 25.6185C20.2769 25.6185 19.4465 25.2716 18.8111 24.6453C18.1841 24.0105 17.8367 23.1811 17.8367 22.2925C17.8282 21.4123 18.1756 20.5829 18.8026 19.9481C19.4381 19.3134 20.2769 18.9664 21.1665 18.9664C22.0561 18.9664 22.8949 19.3134 23.5219 19.9397C24.1489 20.5744 24.4963 21.4123 24.4963 22.2925C24.4878 23.215 24.115 24.0444 23.5134 24.6453Z" fill="white"/>
</svg>
