<svg width="20" height="14" viewBox="0 0 20 14" fill="none" xmlns="http://www.w3.org/2000/svg">
<path fill-rule="evenodd" clip-rule="evenodd" d="M9.07095 9.84273C8.12679 10.7823 6.7747 11.0711 5.58762 10.6998L4.45638 11.8287L4.45544 11.8277L3.40127 10.7735C3.26703 10.6393 3.04938 10.6393 2.91514 10.7735C2.78089 10.9078 2.78089 11.1254 2.91514 11.2597L3.9693 12.3138L3.96973 12.3143L3.42887 12.854C3.27304 13.0144 2.96595 13.1107 2.74595 13.0786L1.74678 12.9411C1.41678 12.8952 1.1097 12.5836 1.05928 12.2536L0.921785 11.2544C0.889702 11.0344 0.995118 10.7273 1.14637 10.5715L3.30053 8.41732C2.93387 7.22565 3.21803 5.87357 4.1622 4.93398C5.51429 3.5819 7.7097 3.5819 9.06637 4.93398C10.423 6.28607 10.423 8.49065 9.07095 9.84273ZM6.30225 7.354C6.30225 7.16416 6.45615 7.01025 6.646 7.01025C6.83584 7.01025 6.98975 7.16416 6.98975 7.354C6.98975 7.54385 6.83584 7.69775 6.646 7.69775C6.45615 7.69775 6.30225 7.54385 6.30225 7.354ZM6.646 6.32275C6.07645 6.32275 5.61475 6.78446 5.61475 7.354C5.61475 7.92355 6.07645 8.38525 6.646 8.38525C7.21554 8.38525 7.67725 7.92355 7.67725 7.354C7.67725 6.78446 7.21554 6.32275 6.646 6.32275Z" fill="#001D4C"/>
<path fill-rule="evenodd" clip-rule="evenodd" d="M12.0698 0.0854839C11.8309 0.207998 5.18733 6.85679 5.08189 7.07896C4.78657 7.70104 5.3335 8.38841 6.02677 8.26635C6.1982 8.23617 6.68281 7.77698 9.33539 5.13123L12.4431 2.03144L15.5224 5.11032C18.8534 8.44081 18.7746 8.37461 19.2518 8.24613C19.5251 8.17253 19.8106 7.86605 19.8622 7.59078C19.9407 7.17249 19.8428 7.03927 18.3645 5.55215L16.9692 4.14848L16.9537 2.83153L16.9383 1.51452L16.0935 1.49866L15.2486 1.48285V1.95504V2.42728L14.0888 1.27299C13.4509 0.638142 12.8564 0.0912687 12.7677 0.0577049C12.5405 -0.0282666 12.2707 -0.0174987 12.0698 0.0854839ZM10.2455 5.44052C9.16974 6.52189 8.0898 7.61896 7.84569 7.87842L7.4018 8.35015V10.7359V13.1218L7.56922 13.2892L7.73664 13.4566H12.4128C15.5105 13.4566 17.1262 13.4367 17.1992 13.3976C17.4718 13.2517 17.4824 13.1523 17.4824 10.7426C17.4824 9.46417 17.459 8.4234 17.4286 8.34843C17.399 8.27552 16.3358 7.16258 15.0659 5.87524L12.7571 3.53465L12.4793 3.50453L12.2014 3.47434L10.2455 5.44052ZM13.6449 9.50455V10.7073H12.4165H11.1882L11.1965 9.50455L11.2049 8.30175H12.4249H13.6449V9.50455Z" fill="#F49825"/>
</svg>
