<svg width="22" height="22" viewBox="0 0 22 22" fill="none" xmlns="http://www.w3.org/2000/svg">
<path fill-rule="evenodd" clip-rule="evenodd" d="M12.4106 0.0854839C12.1717 0.207998 5.52815 6.85679 5.42271 7.07896C5.12739 7.70104 5.67432 8.38841 6.36759 8.26635C6.53902 8.23617 7.02363 7.77698 9.67621 5.13123L12.784 2.03144L15.8632 5.11032C19.1942 8.44081 19.1154 8.37461 19.5927 8.24613C19.8659 8.17253 20.1514 7.86605 20.203 7.59078C20.2815 7.17249 20.1836 7.03927 18.7053 5.55215L17.31 4.14848L17.2945 2.83153L17.2791 1.51452L16.4343 1.49866L15.5895 1.48285V1.95504V2.42728L14.4296 1.27299C13.7917 0.638142 13.1972 0.0912687 13.1085 0.0577049C12.8813 -0.0282666 12.6116 -0.0174987 12.4106 0.0854839ZM10.5863 5.44052C9.51056 6.52189 8.43062 7.61896 8.18651 7.87842L7.74262 8.35015V10.7359V13.1218L7.91004 13.2892L8.07746 13.4566H12.7537C15.8513 13.4566 17.467 13.4367 17.54 13.3976C17.8126 13.2517 17.8232 13.1523 17.8232 10.7426C17.8232 9.46417 17.7999 8.4234 17.7694 8.34843C17.7398 8.27552 16.6766 7.16258 15.4067 5.87524L13.0979 3.53465L12.8201 3.50453L12.5422 3.47434L10.5863 5.44052ZM13.9857 9.50455V10.7073H12.7573H11.529L11.5373 9.50455L11.5457 8.30175H12.7657H13.9857V9.50455Z" fill="#F49825"/>
<path fill-rule="evenodd" clip-rule="evenodd" d="M5.95672 14.5843C5.78346 14.6129 5.204 14.7404 4.66904 14.8675C2.95711 15.2743 2.24316 15.3255 0.44389 15.1706L0 15.1323V17.3475C0 19.0713 0.0158655 19.567 0.0715952 19.5818C0.111001 19.5923 0.691667 19.734 1.36203 19.8966C2.03244 20.0592 3.51446 20.4603 4.65541 20.7878C9.31711 22.126 9.88529 22.1973 12.4186 21.7616C13.967 21.4953 15.7314 20.9977 16.5242 20.6038C17.2918 20.2224 19.5865 18.6195 20.5413 17.7976C20.79 17.5834 20.9974 17.3479 21.0711 17.1957C21.3135 16.6947 21.1702 16.211 20.7184 16.0059C20.2451 15.791 19.8131 15.8841 19.073 16.3605C17.5575 17.3358 16.1807 17.9743 15.1209 18.1933C14.4185 18.3383 12.5165 18.4011 11.7702 18.3038C10.7825 18.1751 9.85144 17.8391 9.80453 17.5947C9.74594 17.2894 10.1874 17.2456 11.1208 17.4639C12.2588 17.73 13.5191 17.8046 14.077 17.6389C14.8109 17.421 15.0779 16.7178 14.6292 16.1845C14.3092 15.8043 13.6511 15.615 11.4266 15.2635C10.7966 15.1639 9.88157 14.9836 9.39329 14.8627C8.90501 14.7419 8.32016 14.6151 8.09358 14.5809C7.60982 14.508 6.40685 14.5099 5.95672 14.5843Z" fill="#001D4C"/>
</svg>
