<svg width="217" height="231" viewBox="0 0 217 231" fill="none" xmlns="http://www.w3.org/2000/svg">
<line x1="115.384" y1="48.9474" x2="134.45" y2="37.0565" stroke="#F49825" stroke-width="2"/>
<line x1="115.111" y1="45.2915" x2="134.683" y2="32.4426" stroke="#F49825" stroke-width="2"/>
<path d="M5.16 140.577V154.617H1.74V140.577H5.16ZM21.1984 154.617H17.7784L12.0584 145.957V154.617H8.63844V140.577H12.0584L17.7784 149.277V140.577H21.1984V154.617ZM42.0758 140.577V154.617H38.6558V148.837H33.3358V154.617H29.9158V140.577H33.3358V146.077H38.6558V140.577H42.0758ZM52.1847 154.757C50.8647 154.757 49.6514 154.451 48.5447 153.837C47.4514 153.224 46.578 152.371 45.9247 151.277C45.2847 150.171 44.9647 148.931 44.9647 147.557C44.9647 146.184 45.2847 144.951 45.9247 143.857C46.578 142.764 47.4514 141.911 48.5447 141.297C49.6514 140.684 50.8647 140.377 52.1847 140.377C53.5047 140.377 54.7114 140.684 55.8047 141.297C56.9114 141.911 57.778 142.764 58.4047 143.857C59.0447 144.951 59.3647 146.184 59.3647 147.557C59.3647 148.931 59.0447 150.171 58.4047 151.277C57.7647 152.371 56.898 153.224 55.8047 153.837C54.7114 154.451 53.5047 154.757 52.1847 154.757ZM52.1847 151.637C53.3047 151.637 54.198 151.264 54.8647 150.517C55.5447 149.771 55.8847 148.784 55.8847 147.557C55.8847 146.317 55.5447 145.331 54.8647 144.597C54.198 143.851 53.3047 143.477 52.1847 143.477C51.0514 143.477 50.1447 143.844 49.4647 144.577C48.798 145.311 48.4647 146.304 48.4647 147.557C48.4647 148.797 48.798 149.791 49.4647 150.537C50.1447 151.271 51.0514 151.637 52.1847 151.637ZM65.6273 140.577V148.977C65.6273 149.817 65.834 150.464 66.2473 150.917C66.6607 151.371 67.2673 151.597 68.0673 151.597C68.8673 151.597 69.4807 151.371 69.9073 150.917C70.334 150.464 70.5473 149.817 70.5473 148.977V140.577H73.9673V148.957C73.9673 150.211 73.7007 151.271 73.1673 152.137C72.634 153.004 71.914 153.657 71.0073 154.097C70.114 154.537 69.114 154.757 68.0073 154.757C66.9007 154.757 65.9073 154.544 65.0273 154.117C64.1607 153.677 63.474 153.024 62.9673 152.157C62.4607 151.277 62.2073 150.211 62.2073 148.957V140.577H65.6273ZM82.4489 154.757C81.4222 154.757 80.5022 154.591 79.6889 154.257C78.8756 153.924 78.2222 153.431 77.7289 152.777C77.2489 152.124 76.9956 151.337 76.9689 150.417H80.6089C80.6622 150.937 80.8422 151.337 81.1489 151.617C81.4556 151.884 81.8556 152.017 82.3489 152.017C82.8556 152.017 83.2556 151.904 83.5489 151.677C83.8422 151.437 83.9889 151.111 83.9889 150.697C83.9889 150.351 83.8689 150.064 83.6289 149.837C83.4022 149.611 83.1156 149.424 82.7689 149.277C82.4356 149.131 81.9556 148.964 81.3289 148.777C80.4222 148.497 79.6822 148.217 79.1089 147.937C78.5356 147.657 78.0422 147.244 77.6289 146.697C77.2156 146.151 77.0089 145.437 77.0089 144.557C77.0089 143.251 77.4822 142.231 78.4289 141.497C79.3756 140.751 80.6089 140.377 82.1289 140.377C83.6756 140.377 84.9222 140.751 85.8689 141.497C86.8156 142.231 87.3222 143.257 87.3889 144.577H83.6889C83.6622 144.124 83.4956 143.771 83.1889 143.517C82.8822 143.251 82.4889 143.117 82.0089 143.117C81.5956 143.117 81.2622 143.231 81.0089 143.457C80.7556 143.671 80.6289 143.984 80.6289 144.397C80.6289 144.851 80.8422 145.204 81.2689 145.457C81.6956 145.711 82.3622 145.984 83.2689 146.277C84.1756 146.584 84.9089 146.877 85.4689 147.157C86.0422 147.437 86.5356 147.844 86.9489 148.377C87.3622 148.911 87.5689 149.597 87.5689 150.437C87.5689 151.237 87.3622 151.964 86.9489 152.617C86.5489 153.271 85.9622 153.791 85.1889 154.177C84.4156 154.564 83.5022 154.757 82.4489 154.757ZM94.0936 143.317V146.157H98.6736V148.797H94.0936V151.877H99.2736V154.617H90.6736V140.577H99.2736V143.317H94.0936ZM118.432 145.097C118.432 145.911 118.246 146.657 117.872 147.337C117.499 148.004 116.926 148.544 116.152 148.957C115.379 149.371 114.419 149.577 113.272 149.577H111.152V154.617H107.732V140.577H113.272C114.392 140.577 115.339 140.771 116.112 141.157C116.886 141.544 117.466 142.077 117.852 142.757C118.239 143.437 118.432 144.217 118.432 145.097ZM113.012 146.857C113.666 146.857 114.152 146.704 114.472 146.397C114.792 146.091 114.952 145.657 114.952 145.097C114.952 144.537 114.792 144.104 114.472 143.797C114.152 143.491 113.666 143.337 113.012 143.337H111.152V146.857H113.012ZM128.373 154.617L125.453 149.317H124.633V154.617H121.213V140.577H126.953C128.059 140.577 128.999 140.771 129.773 141.157C130.559 141.544 131.146 142.077 131.533 142.757C131.919 143.424 132.113 144.171 132.113 144.997C132.113 145.931 131.846 146.764 131.313 147.497C130.793 148.231 130.019 148.751 128.993 149.057L132.233 154.617H128.373ZM124.633 146.897H126.753C127.379 146.897 127.846 146.744 128.153 146.437C128.473 146.131 128.633 145.697 128.633 145.137C128.633 144.604 128.473 144.184 128.153 143.877C127.846 143.571 127.379 143.417 126.753 143.417H124.633V146.897ZM141.9 154.757C140.58 154.757 139.366 154.451 138.26 153.837C137.166 153.224 136.293 152.371 135.64 151.277C135 150.171 134.68 148.931 134.68 147.557C134.68 146.184 135 144.951 135.64 143.857C136.293 142.764 137.166 141.911 138.26 141.297C139.366 140.684 140.58 140.377 141.9 140.377C143.22 140.377 144.426 140.684 145.52 141.297C146.626 141.911 147.493 142.764 148.12 143.857C148.76 144.951 149.08 146.184 149.08 147.557C149.08 148.931 148.76 150.171 148.12 151.277C147.48 152.371 146.613 153.224 145.52 153.837C144.426 154.451 143.22 154.757 141.9 154.757ZM141.9 151.637C143.02 151.637 143.913 151.264 144.58 150.517C145.26 149.771 145.6 148.784 145.6 147.557C145.6 146.317 145.26 145.331 144.58 144.597C143.913 143.851 143.02 143.477 141.9 143.477C140.766 143.477 139.86 143.844 139.18 144.577C138.513 145.311 138.18 146.304 138.18 147.557C138.18 148.797 138.513 149.791 139.18 150.537C139.86 151.271 140.766 151.637 141.9 151.637ZM162.682 145.097C162.682 145.911 162.496 146.657 162.122 147.337C161.749 148.004 161.176 148.544 160.402 148.957C159.629 149.371 158.669 149.577 157.522 149.577H155.402V154.617H151.982V140.577H157.522C158.642 140.577 159.589 140.771 160.362 141.157C161.136 141.544 161.716 142.077 162.102 142.757C162.489 143.437 162.682 144.217 162.682 145.097ZM157.262 146.857C157.916 146.857 158.402 146.704 158.722 146.397C159.042 146.091 159.202 145.657 159.202 145.097C159.202 144.537 159.042 144.104 158.722 143.797C158.402 143.491 157.916 143.337 157.262 143.337H155.402V146.857H157.262ZM168.883 143.317V146.157H173.463V148.797H168.883V151.877H174.063V154.617H165.463V140.577H174.063V143.317H168.883ZM184.443 154.617L181.523 149.317H180.703V154.617H177.283V140.577H183.023C184.13 140.577 185.07 140.771 185.843 141.157C186.63 141.544 187.216 142.077 187.603 142.757C187.99 143.424 188.183 144.171 188.183 144.997C188.183 145.931 187.916 146.764 187.383 147.497C186.863 148.231 186.09 148.751 185.063 149.057L188.303 154.617H184.443ZM180.703 146.897H182.823C183.45 146.897 183.916 146.744 184.223 146.437C184.543 146.131 184.703 145.697 184.703 145.137C184.703 144.604 184.543 144.184 184.223 143.877C183.916 143.571 183.45 143.417 182.823 143.417H180.703V146.897ZM201.43 140.577V143.317H197.71V154.617H194.29V143.317H190.57V140.577H201.43ZM216.186 140.577L211.326 149.977V154.617H207.906V149.977L203.046 140.577H206.926L209.646 146.457L212.346 140.577H216.186Z" fill="#000F30"/>
<g filter="url(#filter0_d_5_105)">
<path d="M23.6992 170.617H193.301L183.301 186.238L193.301 201.859H23.6992L33.6992 186.238L23.6992 170.617Z" fill="#031F5F"/>
</g>
<path d="M52.162 193.008C51.442 193.008 50.728 192.942 50.02 192.81C49.324 192.69 48.754 192.522 48.31 192.306V190.65C49.462 191.19 50.704 191.46 52.036 191.46C53.908 191.46 54.844 190.83 54.844 189.57C54.844 189.138 54.742 188.79 54.538 188.526C54.334 188.262 54.04 188.034 53.656 187.842C53.272 187.638 52.648 187.362 51.784 187.014C50.596 186.534 49.738 186.006 49.21 185.43C48.682 184.854 48.418 184.128 48.418 183.252C48.418 182.592 48.598 182.01 48.958 181.506C49.318 180.99 49.822 180.594 50.47 180.318C51.118 180.03 51.862 179.886 52.702 179.886C53.386 179.886 54.004 179.94 54.556 180.048C55.108 180.156 55.648 180.33 56.176 180.57V182.154C55.132 181.686 54.076 181.452 53.008 181.452C52.144 181.452 51.484 181.608 51.028 181.92C50.572 182.232 50.344 182.676 50.344 183.252C50.344 183.648 50.44 183.984 50.632 184.26C50.836 184.524 51.13 184.764 51.514 184.98C51.91 185.184 52.492 185.442 53.26 185.754C54.112 186.102 54.784 186.432 55.276 186.744C55.768 187.056 56.14 187.44 56.392 187.896C56.656 188.34 56.788 188.898 56.788 189.57C56.788 190.662 56.398 191.508 55.618 192.108C54.838 192.708 53.686 193.008 52.162 193.008ZM68.4502 193.008C67.4782 193.008 66.6202 192.828 65.8762 192.468C65.1442 192.096 64.5682 191.568 64.1482 190.884C63.7402 190.188 63.5362 189.372 63.5362 188.436C63.5362 187.512 63.7402 186.702 64.1482 186.006C64.5562 185.31 65.1322 184.776 65.8762 184.404C66.6202 184.02 67.4782 183.828 68.4502 183.828C69.4222 183.828 70.2802 184.02 71.0242 184.404C71.7682 184.776 72.3442 185.31 72.7522 186.006C73.1722 186.702 73.3822 187.512 73.3822 188.436C73.3822 189.372 73.1722 190.188 72.7522 190.884C72.3442 191.568 71.7682 192.096 71.0242 192.468C70.2802 192.828 69.4222 193.008 68.4502 193.008ZM68.4502 191.568C69.3862 191.568 70.1302 191.28 70.6822 190.704C71.2342 190.128 71.5102 189.372 71.5102 188.436C71.5102 187.464 71.2342 186.696 70.6822 186.132C70.1302 185.568 69.3862 185.286 68.4502 185.286C67.5142 185.286 66.7702 185.568 66.2182 186.132C65.6662 186.696 65.3902 187.464 65.3902 188.436C65.3902 189.372 65.6662 190.128 66.2182 190.704C66.7702 191.28 67.5142 191.568 68.4502 191.568ZM80.7571 179.436H82.5751V192.738H80.7571V179.436ZM93.7611 193.008C92.5971 193.008 91.7151 192.696 91.1151 192.072C90.5271 191.448 90.2331 190.614 90.2331 189.57V184.098H92.0511V189.498C92.0511 190.878 92.7411 191.568 94.1211 191.568C95.3331 191.568 96.2811 191.022 96.9651 189.93V184.098H98.7831V192.738H97.0191V191.514C96.6111 192.03 96.1251 192.408 95.5611 192.648C95.0091 192.888 94.4091 193.008 93.7611 193.008ZM109.846 193.008C108.97 193.008 108.292 192.756 107.812 192.252C107.344 191.748 107.11 191.034 107.11 190.11V185.502H105.796V184.098H107.11V181.506H108.946V184.098H111.07V185.502H108.946V189.984C108.946 190.56 109.054 190.968 109.27 191.208C109.498 191.448 109.906 191.568 110.494 191.568C110.842 191.568 111.19 191.49 111.538 191.334V192.774C111.082 192.93 110.518 193.008 109.846 193.008ZM119.711 182.406C119.411 182.406 119.159 182.304 118.955 182.1C118.751 181.896 118.649 181.644 118.649 181.344C118.649 181.044 118.751 180.792 118.955 180.588C119.159 180.384 119.411 180.282 119.711 180.282C120.023 180.282 120.281 180.384 120.485 180.588C120.701 180.792 120.809 181.044 120.809 181.344C120.809 181.644 120.701 181.896 120.485 182.1C120.281 182.304 120.023 182.406 119.711 182.406ZM118.793 184.098H120.647V192.738H118.793V184.098ZM133.103 193.008C132.131 193.008 131.273 192.828 130.529 192.468C129.797 192.096 129.221 191.568 128.801 190.884C128.393 190.188 128.189 189.372 128.189 188.436C128.189 187.512 128.393 186.702 128.801 186.006C129.209 185.31 129.785 184.776 130.529 184.404C131.273 184.02 132.131 183.828 133.103 183.828C134.075 183.828 134.933 184.02 135.677 184.404C136.421 184.776 136.997 185.31 137.405 186.006C137.825 186.702 138.035 187.512 138.035 188.436C138.035 189.372 137.825 190.188 137.405 190.884C136.997 191.568 136.421 192.096 135.677 192.468C134.933 192.828 134.075 193.008 133.103 193.008ZM133.103 191.568C134.039 191.568 134.783 191.28 135.335 190.704C135.887 190.128 136.163 189.372 136.163 188.436C136.163 187.464 135.887 186.696 135.335 186.132C134.783 185.568 134.039 185.286 133.103 185.286C132.167 185.286 131.423 185.568 130.871 186.132C130.319 186.696 130.043 187.464 130.043 188.436C130.043 189.372 130.319 190.128 130.871 190.704C131.423 191.28 132.167 191.568 133.103 191.568ZM145.409 184.098H147.173V185.34C147.581 184.824 148.079 184.446 148.667 184.206C149.267 183.954 149.891 183.828 150.539 183.828C151.691 183.828 152.549 184.134 153.113 184.746C153.677 185.358 153.959 186.18 153.959 187.212V192.738H152.141V187.392C152.141 185.988 151.469 185.286 150.125 185.286C149.549 185.286 149.009 185.424 148.505 185.7C148.013 185.964 147.587 186.372 147.227 186.924V192.738H145.409V184.098ZM164.788 193.008C164.188 193.008 163.552 192.93 162.88 192.774C162.208 192.63 161.68 192.432 161.296 192.18V190.632C161.764 190.908 162.304 191.136 162.916 191.316C163.528 191.484 164.122 191.568 164.698 191.568C165.346 191.568 165.82 191.49 166.12 191.334C166.42 191.178 166.57 190.926 166.57 190.578C166.57 190.314 166.498 190.104 166.354 189.948C166.222 189.78 165.988 189.63 165.652 189.498C165.328 189.366 164.836 189.21 164.176 189.03C163.468 188.826 162.904 188.622 162.484 188.418C162.076 188.202 161.764 187.932 161.548 187.608C161.344 187.284 161.242 186.864 161.242 186.348C161.242 185.52 161.566 184.896 162.214 184.476C162.874 184.044 163.756 183.828 164.86 183.828C165.436 183.828 166 183.882 166.552 183.99C167.104 184.098 167.548 184.248 167.884 184.44V185.952C167.536 185.748 167.104 185.586 166.588 185.466C166.084 185.346 165.568 185.286 165.04 185.286C164.404 185.286 163.918 185.364 163.582 185.52C163.246 185.676 163.078 185.952 163.078 186.348C163.078 186.6 163.15 186.804 163.294 186.96C163.438 187.116 163.666 187.254 163.978 187.374C164.302 187.482 164.812 187.626 165.508 187.806C166.6 188.106 167.356 188.46 167.776 188.868C168.208 189.276 168.424 189.84 168.424 190.56C168.424 191.304 168.118 191.898 167.506 192.342C166.894 192.786 165.988 193.008 164.788 193.008Z" fill="white"/>
<path fill-rule="evenodd" clip-rule="evenodd" d="M116.824 19.1843L134.727 1.37178L133.694 0.145752L114.674 18.2938V79.4831H116.824V19.1843Z" fill="#F49825"/>
<path fill-rule="evenodd" clip-rule="evenodd" d="M79.1715 110.056L79.1715 65.2876L81.1715 65.2876L81.1715 110.056L79.1715 110.056Z" fill="#F49825"/>
<path d="M87.4036 82.0315L87.4036 109.109" stroke="#000F30" stroke-width="2.14975" stroke-linecap="round"/>
<path d="M93.5608 90.2231L93.5608 109.109" stroke="#000F30" stroke-width="2.14975" stroke-linecap="round"/>
<path fill-rule="evenodd" clip-rule="evenodd" d="M96.2615 112.769C96.2615 113.362 95.7803 113.844 95.1866 113.844H78.0033C77.4097 113.844 76.9285 113.362 76.9285 112.769V112.769C76.9285 112.175 77.4097 111.694 78.0033 111.694H95.1866C95.7803 111.694 96.2615 112.175 96.2615 112.769V112.769Z" fill="#000F30"/>
<path fill-rule="evenodd" clip-rule="evenodd" d="M100.485 117.918C100.485 118.512 100.004 118.993 99.4103 118.993L73.7162 118.993C73.1226 118.993 72.6414 118.512 72.6414 117.918V117.918C72.6414 117.325 73.1226 116.844 73.7162 116.844L99.4103 116.844C100.004 116.844 100.485 117.325 100.485 117.918V117.918Z" fill="#000F30"/>
<path fill-rule="evenodd" clip-rule="evenodd" d="M93.694 45.1385C94.2876 45.1447 94.7656 45.6309 94.7617 46.2245L94.5539 77.4642C94.55 78.0578 94.0655 78.5341 93.4719 78.528V78.528C92.8783 78.5218 92.4003 78.0356 92.4042 77.442L92.612 46.2023C92.616 45.6087 93.1004 45.1324 93.694 45.1385V45.1385Z" fill="#000F30"/>
<path d="M86.4133 69.5762L86.4133 46.1276" stroke="#000F30" stroke-width="2.14975" stroke-linecap="round"/>
<path fill-rule="evenodd" clip-rule="evenodd" d="M81.1714 45.1275L81.1714 79.2881L79.1714 79.2881L79.1714 45.1275L81.1714 45.1275Z" fill="#F49825"/>
<path fill-rule="evenodd" clip-rule="evenodd" d="M76.9893 38.086C76.9942 37.4923 77.4794 37.0151 78.073 37.02L95.2557 37.1625C95.8493 37.1674 96.3266 37.6526 96.3217 38.2462V38.2462C96.3167 38.8398 95.8315 39.3171 95.2379 39.3121L78.0552 39.1697C77.4616 39.1648 76.9844 38.6796 76.9893 38.086V38.086Z" fill="#000F30"/>
<path fill-rule="evenodd" clip-rule="evenodd" d="M72.8085 32.9014C72.8134 32.3078 73.2986 31.8305 73.8922 31.8355L99.5854 32.0484C100.179 32.0534 100.656 32.5386 100.651 33.1322V33.1322C100.646 33.7258 100.161 34.203 99.5676 34.1981L73.8744 33.9851C73.2808 33.9802 72.8035 33.495 72.8085 32.9014V32.9014Z" fill="#000F30"/>
<path d="M133.697 107.479L86.0202 59.5451L79.099 66.8595L133.697 122.382H144.533V13.1434L133.697 0.140625V107.479Z" fill="#F49825"/>
<path d="M136.372 31.1179L142.759 31.6737V33.9933L136.372 34.1322V31.1179Z" fill="white"/>
<path d="M136.372 41.5024L142.759 42.0582V44.3779L136.372 44.5168V41.5024Z" fill="white"/>
<path d="M136.372 51.8879L142.759 52.4437V54.7634L136.372 54.9023V51.8879Z" fill="white"/>
<path d="M136.372 62.2734L142.759 62.8292V65.1489L136.372 65.2877V62.2734Z" fill="white"/>
<path d="M136.372 72.6589L142.759 73.2147V75.5343L136.372 75.6732V72.6589Z" fill="white"/>
<path d="M136.372 27.7651L142.759 28.3209V30.6405L136.372 30.7794V27.7651Z" fill="white"/>
<path d="M136.372 38.1497L142.759 38.7054V41.0251L136.372 41.164V38.1497Z" fill="white"/>
<path d="M136.372 48.5352L142.759 49.0909V51.4106L136.372 51.5495V48.5352Z" fill="white"/>
<path d="M136.372 58.9207L142.759 59.4764V61.7961L136.372 61.935V58.9207Z" fill="white"/>
<path d="M136.372 69.3064L142.759 69.8622V72.1818L136.372 72.3207V69.3064Z" fill="white"/>
<defs>
<filter id="filter0_d_5_105" x="3.69922" y="159.617" width="209.602" height="71.2422" filterUnits="userSpaceOnUse" color-interpolation-filters="sRGB">
<feFlood flood-opacity="0" result="BackgroundImageFix"/>
<feColorMatrix in="SourceAlpha" type="matrix" values="0 0 0 0 0 0 0 0 0 0 0 0 0 0 0 0 0 0 127 0" result="hardAlpha"/>
<feOffset dy="9"/>
<feGaussianBlur stdDeviation="10"/>
<feComposite in2="hardAlpha" operator="out"/>
<feColorMatrix type="matrix" values="0 0 0 0 0 0 0 0 0 0 0 0 0 0 0 0 0 0 0.05 0"/>
<feBlend mode="normal" in2="BackgroundImageFix" result="effect1_dropShadow_5_105"/>
<feBlend mode="normal" in="SourceGraphic" in2="effect1_dropShadow_5_105" result="shape"/>
</filter>
</defs>
</svg>
