<svg width="16" height="16" viewBox="0 0 16 16" fill="none" xmlns="http://www.w3.org/2000/svg">
<path d="M12.2539 8.32736C12.158 8.32736 12.062 8.29741 11.978 8.23151C9.5609 6.36849 6.43604 6.36849 4.01892 8.23151C3.82099 8.38127 3.53909 8.34533 3.38915 8.15364C3.2392 7.95595 3.27519 7.6744 3.46712 7.52464C6.22012 5.39804 9.77682 5.39804 12.5238 7.52464C12.7218 7.6744 12.7577 7.95595 12.6018 8.15364C12.5238 8.26746 12.3919 8.32736 12.2539 8.32736Z" fill="#001D4C"/>
<path d="M13.9999 6.2421C13.9039 6.2421 13.808 6.21216 13.724 6.14627C10.2452 3.46255 5.75289 3.46255 2.28016 6.14627C2.08223 6.29603 1.80033 6.26008 1.65038 6.06838C1.50044 5.8707 1.53642 5.58914 1.72835 5.43938C5.53696 2.49807 10.4612 2.49807 14.2758 5.43938C14.4737 5.58914 14.5097 5.8707 14.3538 6.06838C14.2698 6.1822 14.1318 6.2421 13.9999 6.2421Z" fill="#001D4C"/>
<path d="M11.1266 10.5154C11.0306 10.5154 10.9346 10.4854 10.8507 10.4195C9.12328 9.08367 6.88609 9.08367 5.15271 10.4195C4.95478 10.5693 4.67288 10.5334 4.52294 10.3417C4.37299 10.144 4.40898 9.86243 4.60091 9.71267C6.66416 8.11921 9.3332 8.11921 11.3965 9.71267C11.5944 9.86243 11.6304 10.144 11.4744 10.3417C11.3905 10.4555 11.2585 10.5154 11.1266 10.5154Z" fill="#001D4C"/>
<path d="M9.55735 12.7055C9.46138 12.7055 9.36542 12.6756 9.28145 12.6097C8.50173 12.0047 7.4881 12.0047 6.70838 12.6097C6.51045 12.7595 6.22855 12.7235 6.0786 12.5318C5.92866 12.3341 5.96464 12.0526 6.15657 11.9028C7.27218 11.0402 8.71165 11.0402 9.82725 11.9028C10.0252 12.0526 10.0612 12.3341 9.90522 12.5318C9.82725 12.6397 9.6953 12.7055 9.55735 12.7055Z" fill="#001D4C"/>
</svg>
